<svg xmlns="http://www.w3.org/2000/svg" xmlns:xlink="http://www.w3.org/1999/xlink" width="500" zoomAndPan="magnify" viewBox="0 0 375 374.999991" height="500" preserveAspectRatio="xMidYMid meet" version="1.0"><defs><clipPath id="da0ce3a027"><path d="M 27.824219 27.824219 L 347.324219 27.824219 L 347.324219 347.324219 L 27.824219 347.324219 Z M 27.824219 27.824219 " clip-rule="nonzero"/></clipPath><clipPath id="1a5c60b4c4"><path d="M 187.523438 347.222656 C 99.464844 347.222656 27.824219 275.582031 27.824219 187.523438 C 27.824219 99.464844 99.464844 27.824219 187.523438 27.824219 C 275.582031 27.824219 347.222656 99.464844 347.222656 187.523438 C 347.222656 275.582031 275.582031 347.222656 187.523438 347.222656 Z M 187.523438 41.25 C 106.867188 41.25 41.25 106.867188 41.25 187.523438 C 41.25 268.175781 106.867188 333.792969 187.523438 333.792969 C 268.175781 333.792969 333.792969 268.175781 333.792969 187.523438 C 333.792969 106.867188 268.175781 41.25 187.523438 41.25 Z M 187.523438 41.25 " clip-rule="nonzero"/></clipPath><linearGradient x1="-0.0000051127" gradientTransform="matrix(1.342925, 0, 0, 1.342925, 27.822584, 27.822569)" y1="237.838004" x2="237.837997" gradientUnits="userSpaceOnUse" y2="0.00000233373" id="55cc0be5e9"><stop stop-opacity="1" stop-color="rgb(61.999512%, 73.298645%, 41.999817%)" offset="0"/><stop stop-opacity="1" stop-color="rgb(61.999512%, 73.298645%, 41.999817%)" offset="0.125"/><stop stop-opacity="1" stop-color="rgb(61.999512%, 73.298645%, 41.999817%)" offset="0.140625"/><stop stop-opacity="1" stop-color="rgb(61.86676%, 73.210144%, 41.944885%)" offset="0.148437"/><stop stop-opacity="1" stop-color="rgb(61.164856%, 72.746277%, 41.661072%)" offset="0.152344"/><stop stop-opacity="1" stop-color="rgb(60.597229%, 72.369385%, 41.43219%)" offset="0.15625"/><stop stop-opacity="1" stop-color="rgb(60.028076%, 71.992493%, 41.201782%)" offset="0.160156"/><stop stop-opacity="1" stop-color="rgb(59.460449%, 71.615601%, 40.9729%)" offset="0.164062"/><stop stop-opacity="1" stop-color="rgb(58.892822%, 71.238708%, 40.742493%)" offset="0.167969"/><stop stop-opacity="1" stop-color="rgb(58.325195%, 70.861816%, 40.512085%)" offset="0.171875"/><stop stop-opacity="1" stop-color="rgb(57.756042%, 70.484924%, 40.281677%)" offset="0.175781"/><stop stop-opacity="1" stop-color="rgb(57.188416%, 70.108032%, 40.052795%)" offset="0.179687"/><stop stop-opacity="1" stop-color="rgb(56.619263%, 69.73114%, 39.822388%)" offset="0.183594"/><stop stop-opacity="1" stop-color="rgb(56.051636%, 69.354248%, 39.59198%)" offset="0.1875"/><stop stop-opacity="1" stop-color="rgb(55.484009%, 68.977356%, 39.361572%)" offset="0.191406"/><stop stop-opacity="1" stop-color="rgb(54.916382%, 68.600464%, 39.13269%)" offset="0.195312"/><stop stop-opacity="1" stop-color="rgb(54.347229%, 68.223572%, 38.902283%)" offset="0.199219"/><stop stop-opacity="1" stop-color="rgb(53.779602%, 67.84668%, 38.673401%)" offset="0.203125"/><stop stop-opacity="1" stop-color="rgb(53.210449%, 67.469788%, 38.442993%)" offset="0.207031"/><stop stop-opacity="1" stop-color="rgb(52.642822%, 67.092896%, 38.212585%)" offset="0.210937"/><stop stop-opacity="1" stop-color="rgb(52.075195%, 66.716003%, 37.982178%)" offset="0.214844"/><stop stop-opacity="1" stop-color="rgb(51.507568%, 66.339111%, 37.753296%)" offset="0.21875"/><stop stop-opacity="1" stop-color="rgb(50.938416%, 65.960693%, 37.522888%)" offset="0.222656"/><stop stop-opacity="1" stop-color="rgb(50.370789%, 65.583801%, 37.294006%)" offset="0.226562"/><stop stop-opacity="1" stop-color="rgb(49.801636%, 65.206909%, 37.063599%)" offset="0.230469"/><stop stop-opacity="1" stop-color="rgb(49.234009%, 64.830017%, 36.833191%)" offset="0.234375"/><stop stop-opacity="1" stop-color="rgb(48.664856%, 64.453125%, 36.602783%)" offset="0.238281"/><stop stop-opacity="1" stop-color="rgb(48.097229%, 64.076233%, 36.373901%)" offset="0.242187"/><stop stop-opacity="1" stop-color="rgb(47.529602%, 63.699341%, 36.143494%)" offset="0.246094"/><stop stop-opacity="1" stop-color="rgb(46.961975%, 63.322449%, 35.914612%)" offset="0.25"/><stop stop-opacity="1" stop-color="rgb(46.392822%, 62.945557%, 35.684204%)" offset="0.253906"/><stop stop-opacity="1" stop-color="rgb(45.825195%, 62.568665%, 35.453796%)" offset="0.257812"/><stop stop-opacity="1" stop-color="rgb(45.256042%, 62.191772%, 35.223389%)" offset="0.261719"/><stop stop-opacity="1" stop-color="rgb(44.688416%, 61.81488%, 34.994507%)" offset="0.265625"/><stop stop-opacity="1" stop-color="rgb(44.120789%, 61.437988%, 34.764099%)" offset="0.269531"/><stop stop-opacity="1" stop-color="rgb(43.553162%, 61.061096%, 34.533691%)" offset="0.273438"/><stop stop-opacity="1" stop-color="rgb(42.984009%, 60.684204%, 34.303284%)" offset="0.277344"/><stop stop-opacity="1" stop-color="rgb(42.416382%, 60.307312%, 34.074402%)" offset="0.28125"/><stop stop-opacity="1" stop-color="rgb(41.847229%, 59.93042%, 33.843994%)" offset="0.285156"/><stop stop-opacity="1" stop-color="rgb(41.279602%, 59.553528%, 33.615112%)" offset="0.289062"/><stop stop-opacity="1" stop-color="rgb(40.711975%, 59.176636%, 33.384705%)" offset="0.292969"/><stop stop-opacity="1" stop-color="rgb(40.144348%, 58.799744%, 33.154297%)" offset="0.296875"/><stop stop-opacity="1" stop-color="rgb(39.575195%, 58.422852%, 32.923889%)" offset="0.300781"/><stop stop-opacity="1" stop-color="rgb(39.007568%, 58.045959%, 32.695007%)" offset="0.304688"/><stop stop-opacity="1" stop-color="rgb(38.438416%, 57.669067%, 32.4646%)" offset="0.308594"/><stop stop-opacity="1" stop-color="rgb(37.870789%, 57.292175%, 32.235718%)" offset="0.3125"/><stop stop-opacity="1" stop-color="rgb(37.301636%, 56.915283%, 32.00531%)" offset="0.316406"/><stop stop-opacity="1" stop-color="rgb(36.734009%, 56.538391%, 31.774902%)" offset="0.320312"/><stop stop-opacity="1" stop-color="rgb(36.166382%, 56.161499%, 31.544495%)" offset="0.324219"/><stop stop-opacity="1" stop-color="rgb(35.598755%, 55.784607%, 31.315613%)" offset="0.328125"/><stop stop-opacity="1" stop-color="rgb(35.029602%, 55.407715%, 31.085205%)" offset="0.332031"/><stop stop-opacity="1" stop-color="rgb(34.461975%, 55.030823%, 30.856323%)" offset="0.335938"/><stop stop-opacity="1" stop-color="rgb(33.892822%, 54.653931%, 30.625916%)" offset="0.339844"/><stop stop-opacity="1" stop-color="rgb(33.325195%, 54.277039%, 30.395508%)" offset="0.34375"/><stop stop-opacity="1" stop-color="rgb(32.757568%, 53.900146%, 30.1651%)" offset="0.347656"/><stop stop-opacity="1" stop-color="rgb(32.189941%, 53.523254%, 29.936218%)" offset="0.351562"/><stop stop-opacity="1" stop-color="rgb(31.620789%, 53.146362%, 29.705811%)" offset="0.355469"/><stop stop-opacity="1" stop-color="rgb(31.053162%, 52.76947%, 29.476929%)" offset="0.359375"/><stop stop-opacity="1" stop-color="rgb(30.484009%, 52.392578%, 29.246521%)" offset="0.363281"/><stop stop-opacity="1" stop-color="rgb(29.916382%, 52.015686%, 29.016113%)" offset="0.367188"/><stop stop-opacity="1" stop-color="rgb(29.348755%, 51.637268%, 28.785706%)" offset="0.371094"/><stop stop-opacity="1" stop-color="rgb(28.781128%, 51.260376%, 28.556824%)" offset="0.375"/><stop stop-opacity="1" stop-color="rgb(28.211975%, 50.883484%, 28.326416%)" offset="0.378906"/><stop stop-opacity="1" stop-color="rgb(27.644348%, 50.506592%, 28.096008%)" offset="0.382812"/><stop stop-opacity="1" stop-color="rgb(27.075195%, 50.1297%, 27.865601%)" offset="0.386719"/><stop stop-opacity="1" stop-color="rgb(26.507568%, 49.752808%, 27.636719%)" offset="0.390625"/><stop stop-opacity="1" stop-color="rgb(25.938416%, 49.375916%, 27.406311%)" offset="0.394531"/><stop stop-opacity="1" stop-color="rgb(25.370789%, 48.999023%, 27.177429%)" offset="0.398438"/><stop stop-opacity="1" stop-color="rgb(24.803162%, 48.622131%, 26.947021%)" offset="0.402344"/><stop stop-opacity="1" stop-color="rgb(24.235535%, 48.245239%, 26.716614%)" offset="0.40625"/><stop stop-opacity="1" stop-color="rgb(23.666382%, 47.868347%, 26.486206%)" offset="0.410156"/><stop stop-opacity="1" stop-color="rgb(23.098755%, 47.491455%, 26.257324%)" offset="0.414062"/><stop stop-opacity="1" stop-color="rgb(22.529602%, 47.114563%, 26.026917%)" offset="0.417969"/><stop stop-opacity="1" stop-color="rgb(21.961975%, 46.737671%, 25.798035%)" offset="0.421875"/><stop stop-opacity="1" stop-color="rgb(21.394348%, 46.360779%, 25.567627%)" offset="0.425781"/><stop stop-opacity="1" stop-color="rgb(20.826721%, 45.983887%, 25.337219%)" offset="0.429688"/><stop stop-opacity="1" stop-color="rgb(20.257568%, 45.606995%, 25.106812%)" offset="0.433594"/><stop stop-opacity="1" stop-color="rgb(19.689941%, 45.230103%, 24.87793%)" offset="0.4375"/><stop stop-opacity="1" stop-color="rgb(19.120789%, 44.85321%, 24.647522%)" offset="0.441406"/><stop stop-opacity="1" stop-color="rgb(18.553162%, 44.476318%, 24.41864%)" offset="0.445312"/><stop stop-opacity="1" stop-color="rgb(17.985535%, 44.099426%, 24.188232%)" offset="0.449219"/><stop stop-opacity="1" stop-color="rgb(17.417908%, 43.722534%, 23.957825%)" offset="0.453125"/><stop stop-opacity="1" stop-color="rgb(16.848755%, 43.345642%, 23.727417%)" offset="0.457031"/><stop stop-opacity="1" stop-color="rgb(16.281128%, 42.96875%, 23.498535%)" offset="0.460938"/><stop stop-opacity="1" stop-color="rgb(15.711975%, 42.591858%, 23.268127%)" offset="0.464844"/><stop stop-opacity="1" stop-color="rgb(15.144348%, 42.214966%, 23.039246%)" offset="0.46875"/><stop stop-opacity="1" stop-color="rgb(14.575195%, 41.838074%, 22.808838%)" offset="0.472656"/><stop stop-opacity="1" stop-color="rgb(14.007568%, 41.461182%, 22.57843%)" offset="0.476562"/><stop stop-opacity="1" stop-color="rgb(13.439941%, 41.08429%, 22.348022%)" offset="0.480469"/><stop stop-opacity="1" stop-color="rgb(12.872314%, 40.707397%, 22.119141%)" offset="0.484375"/><stop stop-opacity="1" stop-color="rgb(12.303162%, 40.330505%, 21.888733%)" offset="0.488281"/><stop stop-opacity="1" stop-color="rgb(11.735535%, 39.953613%, 21.658325%)" offset="0.492188"/><stop stop-opacity="1" stop-color="rgb(11.166382%, 39.576721%, 21.427917%)" offset="0.496094"/><stop stop-opacity="1" stop-color="rgb(10.598755%, 39.199829%, 21.199036%)" offset="0.5"/><stop stop-opacity="1" stop-color="rgb(11.408997%, 39.677429%, 21.453857%)" offset="0.503906"/><stop stop-opacity="1" stop-color="rgb(12.219238%, 40.155029%, 21.710205%)" offset="0.507812"/><stop stop-opacity="1" stop-color="rgb(13.02948%, 40.631104%, 21.965027%)" offset="0.511719"/><stop stop-opacity="1" stop-color="rgb(13.839722%, 41.108704%, 22.219849%)" offset="0.515625"/><stop stop-opacity="1" stop-color="rgb(14.649963%, 41.586304%, 22.47467%)" offset="0.519531"/><stop stop-opacity="1" stop-color="rgb(15.460205%, 42.063904%, 22.731018%)" offset="0.523438"/><stop stop-opacity="1" stop-color="rgb(16.270447%, 42.541504%, 22.98584%)" offset="0.527344"/><stop stop-opacity="1" stop-color="rgb(17.080688%, 43.019104%, 23.242188%)" offset="0.53125"/><stop stop-opacity="1" stop-color="rgb(17.89093%, 43.496704%, 23.497009%)" offset="0.535156"/><stop stop-opacity="1" stop-color="rgb(18.701172%, 43.974304%, 23.753357%)" offset="0.539062"/><stop stop-opacity="1" stop-color="rgb(19.511414%, 44.451904%, 24.008179%)" offset="0.542969"/><stop stop-opacity="1" stop-color="rgb(20.321655%, 44.929504%, 24.263%)" offset="0.546875"/><stop stop-opacity="1" stop-color="rgb(21.131897%, 45.407104%, 24.517822%)" offset="0.550781"/><stop stop-opacity="1" stop-color="rgb(21.942139%, 45.884705%, 24.77417%)" offset="0.554687"/><stop stop-opacity="1" stop-color="rgb(22.75238%, 46.362305%, 25.028992%)" offset="0.558594"/><stop stop-opacity="1" stop-color="rgb(23.562622%, 46.839905%, 25.285339%)" offset="0.5625"/><stop stop-opacity="1" stop-color="rgb(24.372864%, 47.317505%, 25.540161%)" offset="0.566406"/><stop stop-opacity="1" stop-color="rgb(25.183105%, 47.795105%, 25.794983%)" offset="0.570312"/><stop stop-opacity="1" stop-color="rgb(25.993347%, 48.272705%, 26.049805%)" offset="0.574219"/><stop stop-opacity="1" stop-color="rgb(26.803589%, 48.750305%, 26.306152%)" offset="0.578125"/><stop stop-opacity="1" stop-color="rgb(27.613831%, 49.226379%, 26.560974%)" offset="0.582031"/><stop stop-opacity="1" stop-color="rgb(28.424072%, 49.703979%, 26.817322%)" offset="0.585938"/><stop stop-opacity="1" stop-color="rgb(29.234314%, 50.18158%, 27.072144%)" offset="0.589844"/><stop stop-opacity="1" stop-color="rgb(30.044556%, 50.65918%, 27.326965%)" offset="0.59375"/><stop stop-opacity="1" stop-color="rgb(30.854797%, 51.13678%, 27.581787%)" offset="0.597656"/><stop stop-opacity="1" stop-color="rgb(31.665039%, 51.61438%, 27.838135%)" offset="0.601562"/><stop stop-opacity="1" stop-color="rgb(32.475281%, 52.09198%, 28.092957%)" offset="0.605469"/><stop stop-opacity="1" stop-color="rgb(33.285522%, 52.56958%, 28.349304%)" offset="0.609375"/><stop stop-opacity="1" stop-color="rgb(34.095764%, 53.04718%, 28.604126%)" offset="0.613281"/><stop stop-opacity="1" stop-color="rgb(34.906006%, 53.52478%, 28.858948%)" offset="0.617187"/><stop stop-opacity="1" stop-color="rgb(35.716248%, 54.00238%, 29.11377%)" offset="0.621094"/><stop stop-opacity="1" stop-color="rgb(36.526489%, 54.47998%, 29.370117%)" offset="0.625"/><stop stop-opacity="1" stop-color="rgb(37.336731%, 54.957581%, 29.624939%)" offset="0.628906"/><stop stop-opacity="1" stop-color="rgb(38.146973%, 55.435181%, 29.881287%)" offset="0.632812"/><stop stop-opacity="1" stop-color="rgb(38.957214%, 55.912781%, 30.136108%)" offset="0.636719"/><stop stop-opacity="1" stop-color="rgb(39.767456%, 56.390381%, 30.39093%)" offset="0.640625"/><stop stop-opacity="1" stop-color="rgb(40.577698%, 56.867981%, 30.645752%)" offset="0.644531"/><stop stop-opacity="1" stop-color="rgb(41.387939%, 57.345581%, 30.9021%)" offset="0.648438"/><stop stop-opacity="1" stop-color="rgb(42.198181%, 57.823181%, 31.156921%)" offset="0.652344"/><stop stop-opacity="1" stop-color="rgb(43.008423%, 58.300781%, 31.413269%)" offset="0.65625"/><stop stop-opacity="1" stop-color="rgb(43.818665%, 58.776855%, 31.668091%)" offset="0.660156"/><stop stop-opacity="1" stop-color="rgb(44.628906%, 59.254456%, 31.922913%)" offset="0.664062"/><stop stop-opacity="1" stop-color="rgb(45.439148%, 59.732056%, 32.177734%)" offset="0.667969"/><stop stop-opacity="1" stop-color="rgb(46.24939%, 60.209656%, 32.434082%)" offset="0.671875"/><stop stop-opacity="1" stop-color="rgb(47.059631%, 60.687256%, 32.688904%)" offset="0.675781"/><stop stop-opacity="1" stop-color="rgb(47.869873%, 61.164856%, 32.945251%)" offset="0.679687"/><stop stop-opacity="1" stop-color="rgb(48.680115%, 61.642456%, 33.200073%)" offset="0.683594"/><stop stop-opacity="1" stop-color="rgb(49.490356%, 62.120056%, 33.454895%)" offset="0.6875"/><stop stop-opacity="1" stop-color="rgb(50.300598%, 62.597656%, 33.709717%)" offset="0.691406"/><stop stop-opacity="1" stop-color="rgb(51.11084%, 63.075256%, 33.966064%)" offset="0.695312"/><stop stop-opacity="1" stop-color="rgb(51.921082%, 63.552856%, 34.220886%)" offset="0.699219"/><stop stop-opacity="1" stop-color="rgb(52.731323%, 64.030457%, 34.477234%)" offset="0.703125"/><stop stop-opacity="1" stop-color="rgb(53.541565%, 64.508057%, 34.732056%)" offset="0.707031"/><stop stop-opacity="1" stop-color="rgb(54.351807%, 64.985657%, 34.988403%)" offset="0.710937"/><stop stop-opacity="1" stop-color="rgb(55.162048%, 65.463257%, 35.243225%)" offset="0.714844"/><stop stop-opacity="1" stop-color="rgb(55.97229%, 65.940857%, 35.498047%)" offset="0.71875"/><stop stop-opacity="1" stop-color="rgb(56.782532%, 66.418457%, 35.752869%)" offset="0.722656"/><stop stop-opacity="1" stop-color="rgb(57.592773%, 66.896057%, 36.009216%)" offset="0.726562"/><stop stop-opacity="1" stop-color="rgb(58.403015%, 67.373657%, 36.264038%)" offset="0.730469"/><stop stop-opacity="1" stop-color="rgb(59.213257%, 67.851257%, 36.520386%)" offset="0.734375"/><stop stop-opacity="1" stop-color="rgb(60.023499%, 68.327332%, 36.775208%)" offset="0.738281"/><stop stop-opacity="1" stop-color="rgb(60.83374%, 68.804932%, 37.030029%)" offset="0.742188"/><stop stop-opacity="1" stop-color="rgb(61.643982%, 69.282532%, 37.284851%)" offset="0.746094"/><stop stop-opacity="1" stop-color="rgb(62.454224%, 69.760132%, 37.541199%)" offset="0.75"/><stop stop-opacity="1" stop-color="rgb(63.264465%, 70.237732%, 37.796021%)" offset="0.753906"/><stop stop-opacity="1" stop-color="rgb(64.074707%, 70.715332%, 38.052368%)" offset="0.757812"/><stop stop-opacity="1" stop-color="rgb(64.884949%, 71.192932%, 38.30719%)" offset="0.761719"/><stop stop-opacity="1" stop-color="rgb(65.69519%, 71.670532%, 38.562012%)" offset="0.765625"/><stop stop-opacity="1" stop-color="rgb(66.505432%, 72.148132%, 38.816833%)" offset="0.769531"/><stop stop-opacity="1" stop-color="rgb(67.315674%, 72.625732%, 39.073181%)" offset="0.773438"/><stop stop-opacity="1" stop-color="rgb(68.125916%, 73.103333%, 39.328003%)" offset="0.777344"/><stop stop-opacity="1" stop-color="rgb(68.936157%, 73.580933%, 39.584351%)" offset="0.78125"/><stop stop-opacity="1" stop-color="rgb(69.746399%, 74.058533%, 39.839172%)" offset="0.785156"/><stop stop-opacity="1" stop-color="rgb(70.556641%, 74.536133%, 40.093994%)" offset="0.789062"/><stop stop-opacity="1" stop-color="rgb(71.366882%, 75.013733%, 40.348816%)" offset="0.792969"/><stop stop-opacity="1" stop-color="rgb(72.177124%, 75.491333%, 40.605164%)" offset="0.796875"/><stop stop-opacity="1" stop-color="rgb(72.987366%, 75.968933%, 40.859985%)" offset="0.800781"/><stop stop-opacity="1" stop-color="rgb(73.797607%, 76.446533%, 41.116333%)" offset="0.804687"/><stop stop-opacity="1" stop-color="rgb(74.607849%, 76.922607%, 41.371155%)" offset="0.808594"/><stop stop-opacity="1" stop-color="rgb(75.418091%, 77.400208%, 41.625977%)" offset="0.8125"/><stop stop-opacity="1" stop-color="rgb(76.228333%, 77.877808%, 41.880798%)" offset="0.816406"/><stop stop-opacity="1" stop-color="rgb(77.038574%, 78.355408%, 42.137146%)" offset="0.820312"/><stop stop-opacity="1" stop-color="rgb(77.848816%, 78.833008%, 42.391968%)" offset="0.824219"/><stop stop-opacity="1" stop-color="rgb(78.659058%, 79.310608%, 42.648315%)" offset="0.828125"/><stop stop-opacity="1" stop-color="rgb(79.469299%, 79.788208%, 42.903137%)" offset="0.832031"/><stop stop-opacity="1" stop-color="rgb(80.279541%, 80.265808%, 43.157959%)" offset="0.835937"/><stop stop-opacity="1" stop-color="rgb(81.089783%, 80.743408%, 43.412781%)" offset="0.839844"/><stop stop-opacity="1" stop-color="rgb(81.900024%, 81.221008%, 43.669128%)" offset="0.84375"/><stop stop-opacity="1" stop-color="rgb(82.710266%, 81.698608%, 43.92395%)" offset="0.847656"/><stop stop-opacity="1" stop-color="rgb(83.520508%, 82.176208%, 44.180298%)" offset="0.851562"/><stop stop-opacity="1" stop-color="rgb(83.709717%, 82.287598%, 44.239807%)" offset="0.859375"/><stop stop-opacity="1" stop-color="rgb(83.898926%, 82.398987%, 44.299316%)" offset="0.875"/><stop stop-opacity="1" stop-color="rgb(83.898926%, 82.398987%, 44.299316%)" offset="1"/></linearGradient><clipPath id="e4fe49956e"><path d="M 97.1875 188 L 236 188 L 236 277 L 97.1875 277 Z M 97.1875 188 " clip-rule="nonzero"/></clipPath><clipPath id="c8e6bf27a6"><path d="M 221 208 L 290.6875 208 L 290.6875 277 L 221 277 Z M 221 208 " clip-rule="nonzero"/></clipPath></defs><g clip-path="url(#da0ce3a027)"><g clip-path="url(#1a5c60b4c4)"><path fill="url(#55cc0be5e9)" d="M 27.824219 27.824219 L 27.824219 347.222656 L 347.222656 347.222656 L 347.222656 27.824219 Z M 27.824219 27.824219 " fill-rule="nonzero"/></g></g><path fill="#1b6436" d="M 184.335938 180.558594 C 185.914062 180.558594 187.484375 180.484375 189.054688 180.328125 C 190.625 180.175781 192.183594 179.941406 193.730469 179.636719 C 195.277344 179.328125 196.804688 178.945312 198.316406 178.488281 C 199.824219 178.027344 201.308594 177.5 202.765625 176.894531 C 204.222656 176.289062 205.644531 175.617188 207.039062 174.875 C 208.429688 174.128906 209.78125 173.320312 211.089844 172.445312 C 212.402344 171.566406 213.667969 170.628906 214.886719 169.628906 C 216.105469 168.628906 217.273438 167.570312 218.390625 166.453125 C 219.503906 165.339844 220.5625 164.171875 221.5625 162.953125 C 222.5625 161.734375 223.5 160.46875 224.378906 159.15625 C 225.253906 157.84375 226.0625 156.496094 226.808594 155.101562 C 227.550781 153.710938 228.226562 152.289062 228.828125 150.832031 C 229.433594 149.375 229.960938 147.890625 230.421875 146.382812 C 230.878906 144.871094 231.261719 143.34375 231.570312 141.796875 C 231.875 140.25 232.109375 138.691406 232.261719 137.121094 C 232.417969 135.550781 232.496094 133.980469 232.496094 132.402344 C 232.496094 130.824219 232.417969 129.25 232.261719 127.679688 C 232.109375 126.109375 231.875 124.554688 231.570312 123.007812 C 231.261719 121.460938 230.878906 119.929688 230.421875 118.421875 C 229.960938 116.914062 229.433594 115.429688 228.828125 113.972656 C 228.226562 112.515625 227.550781 111.089844 226.808594 109.699219 C 226.0625 108.308594 225.253906 106.957031 224.378906 105.644531 C 223.5 104.335938 222.5625 103.070312 221.5625 101.847656 C 220.5625 100.628906 219.503906 99.464844 218.390625 98.347656 C 217.273438 97.234375 216.105469 96.175781 214.886719 95.175781 C 213.667969 94.171875 212.402344 93.234375 211.089844 92.359375 C 209.78125 91.480469 208.429688 90.671875 207.039062 89.929688 C 205.644531 89.183594 204.222656 88.511719 202.765625 87.90625 C 201.308594 87.304688 199.824219 86.773438 198.316406 86.316406 C 196.804688 85.859375 195.277344 85.476562 193.730469 85.167969 C 192.183594 84.859375 190.625 84.628906 189.054688 84.472656 C 187.484375 84.320312 185.914062 84.242188 184.335938 84.242188 C 182.757812 84.242188 181.183594 84.320312 179.613281 84.472656 C 178.046875 84.628906 176.488281 84.859375 174.941406 85.167969 C 173.394531 85.476562 171.863281 85.859375 170.355469 86.316406 C 168.847656 86.773438 167.363281 87.304688 165.90625 87.90625 C 164.449219 88.511719 163.023438 89.183594 161.632812 89.929688 C 160.242188 90.671875 158.890625 91.480469 157.578125 92.359375 C 156.269531 93.234375 155.003906 94.171875 153.785156 95.175781 C 152.5625 96.175781 151.398438 97.234375 150.28125 98.347656 C 149.167969 99.464844 148.109375 100.628906 147.109375 101.847656 C 146.105469 103.070312 145.167969 104.335938 144.292969 105.644531 C 143.417969 106.957031 142.605469 108.308594 141.863281 109.699219 C 141.121094 111.089844 140.445312 112.515625 139.84375 113.972656 C 139.238281 115.429688 138.707031 116.914062 138.25 118.421875 C 137.792969 119.929688 137.410156 121.460938 137.101562 123.007812 C 136.792969 124.554688 136.5625 126.109375 136.40625 127.679688 C 136.253906 129.25 136.175781 130.824219 136.175781 132.402344 C 136.179688 133.976562 136.257812 135.550781 136.414062 137.121094 C 136.570312 138.6875 136.800781 140.246094 137.109375 141.792969 C 137.417969 143.339844 137.804688 144.867188 138.261719 146.375 C 138.722656 147.882812 139.253906 149.367188 139.855469 150.824219 C 140.460938 152.277344 141.136719 153.703125 141.878906 155.09375 C 142.621094 156.484375 143.433594 157.832031 144.308594 159.144531 C 145.1875 160.453125 146.125 161.71875 147.125 162.9375 C 148.125 164.15625 149.183594 165.324219 150.296875 166.4375 C 151.414062 167.554688 152.578125 168.613281 153.796875 169.613281 C 155.015625 170.613281 156.28125 171.550781 157.59375 172.425781 C 158.902344 173.304688 160.253906 174.113281 161.644531 174.859375 C 163.035156 175.601562 164.457031 176.277344 165.914062 176.878906 C 167.371094 177.484375 168.851562 178.015625 170.363281 178.472656 C 171.871094 178.933594 173.398438 179.316406 174.945312 179.625 C 176.488281 179.933594 178.046875 180.167969 179.617188 180.324219 C 181.183594 180.480469 182.757812 180.558594 184.335938 180.558594 Z M 184.335938 98.003906 C 185.460938 98.003906 186.585938 98.058594 187.707031 98.167969 C 188.828125 98.277344 189.941406 98.441406 191.046875 98.664062 C 192.152344 98.882812 193.242188 99.15625 194.320312 99.484375 C 195.398438 99.808594 196.457031 100.1875 197.5 100.621094 C 198.539062 101.050781 199.558594 101.53125 200.550781 102.0625 C 201.542969 102.59375 202.507812 103.171875 203.445312 103.800781 C 204.382812 104.425781 205.285156 105.09375 206.15625 105.808594 C 207.027344 106.523438 207.863281 107.28125 208.660156 108.078125 C 209.457031 108.875 210.210938 109.707031 210.925781 110.578125 C 211.640625 111.449219 212.3125 112.351562 212.9375 113.289062 C 213.5625 114.226562 214.140625 115.191406 214.671875 116.1875 C 215.203125 117.179688 215.683594 118.195312 216.117188 119.238281 C 216.546875 120.277344 216.925781 121.335938 217.253906 122.414062 C 217.582031 123.492188 217.855469 124.585938 218.074219 125.691406 C 218.292969 126.796875 218.457031 127.910156 218.570312 129.03125 C 218.679688 130.152344 218.734375 131.273438 218.734375 132.402344 C 218.734375 133.527344 218.679688 134.652344 218.570312 135.773438 C 218.457031 136.894531 218.292969 138.007812 218.074219 139.113281 C 217.855469 140.21875 217.582031 141.308594 217.253906 142.386719 C 216.925781 143.464844 216.546875 144.523438 216.117188 145.566406 C 215.683594 146.605469 215.203125 147.625 214.671875 148.617188 C 214.140625 149.609375 213.5625 150.574219 212.9375 151.511719 C 212.3125 152.449219 211.640625 153.351562 210.925781 154.222656 C 210.210938 155.09375 209.457031 155.929688 208.660156 156.726562 C 207.863281 157.523438 207.027344 158.277344 206.15625 158.992188 C 205.285156 159.707031 204.382812 160.378906 203.445312 161.003906 C 202.507812 161.628906 201.542969 162.207031 200.550781 162.738281 C 199.558594 163.269531 198.539062 163.75 197.5 164.183594 C 196.457031 164.613281 195.398438 164.992188 194.320312 165.320312 C 193.242188 165.648438 192.152344 165.917969 191.046875 166.140625 C 189.941406 166.359375 188.828125 166.523438 187.707031 166.636719 C 186.585938 166.746094 185.460938 166.800781 184.335938 166.800781 C 183.207031 166.800781 182.085938 166.746094 180.964844 166.636719 C 179.84375 166.523438 178.730469 166.359375 177.625 166.140625 C 176.519531 165.917969 175.429688 165.648438 174.351562 165.320312 C 173.273438 164.992188 172.210938 164.613281 171.171875 164.183594 C 170.128906 163.75 169.113281 163.269531 168.121094 162.738281 C 167.125 162.207031 166.160156 161.628906 165.222656 161.003906 C 164.289062 160.378906 163.382812 159.707031 162.511719 158.992188 C 161.640625 158.277344 160.808594 157.523438 160.011719 156.726562 C 159.214844 155.929688 158.457031 155.09375 157.746094 154.222656 C 157.03125 153.351562 156.359375 152.449219 155.734375 151.511719 C 155.105469 150.574219 154.527344 149.609375 153.996094 148.617188 C 153.464844 147.625 152.984375 146.605469 152.554688 145.566406 C 152.125 144.523438 151.746094 143.464844 151.417969 142.386719 C 151.089844 141.308594 150.816406 140.21875 150.597656 139.113281 C 150.378906 138.007812 150.210938 136.894531 150.101562 135.773438 C 149.992188 134.652344 149.9375 133.527344 149.9375 132.402344 C 149.9375 131.273438 149.992188 130.152344 150.105469 129.03125 C 150.21875 127.910156 150.382812 126.796875 150.605469 125.691406 C 150.824219 124.589844 151.097656 123.496094 151.425781 122.421875 C 151.753906 121.34375 152.132812 120.285156 152.566406 119.242188 C 152.996094 118.203125 153.476562 117.1875 154.011719 116.195312 C 154.542969 115.199219 155.121094 114.234375 155.746094 113.300781 C 156.371094 112.363281 157.042969 111.460938 157.757812 110.589844 C 158.472656 109.71875 159.226562 108.886719 160.023438 108.089844 C 160.820312 107.292969 161.652344 106.539062 162.523438 105.824219 C 163.394531 105.109375 164.296875 104.4375 165.234375 103.8125 C 166.171875 103.1875 167.132812 102.605469 168.128906 102.074219 C 169.121094 101.542969 170.136719 101.0625 171.175781 100.632812 C 172.21875 100.199219 173.277344 99.820312 174.355469 99.492188 C 175.433594 99.164062 176.523438 98.890625 177.628906 98.667969 C 178.730469 98.449219 179.84375 98.28125 180.964844 98.171875 C 182.085938 98.058594 183.207031 98.003906 184.335938 98.003906 Z M 184.335938 98.003906 " fill-opacity="1" fill-rule="nonzero"/><g clip-path="url(#e4fe49956e)"><path fill="#1b6436" d="M 228.59375 263.117188 L 118.632812 263.117188 C 117.496094 263.113281 116.425781 262.851562 115.414062 262.335938 C 114.402344 261.816406 113.566406 261.09375 112.902344 260.175781 C 112.289062 259.367188 111.898438 258.464844 111.730469 257.464844 C 111.558594 256.464844 111.632812 255.484375 111.945312 254.519531 C 112.566406 252.632812 113.265625 250.773438 114.03125 248.945312 C 114.800781 247.113281 115.640625 245.316406 116.550781 243.550781 C 117.460938 241.785156 118.441406 240.0625 119.488281 238.375 C 120.535156 236.683594 121.644531 235.042969 122.820312 233.441406 C 123.996094 231.839844 125.234375 230.289062 126.53125 228.785156 C 127.828125 227.285156 129.183594 225.835938 130.597656 224.4375 C 132.007812 223.042969 133.472656 221.703125 134.988281 220.421875 C 136.507812 219.140625 138.074219 217.921875 139.6875 216.765625 C 141.300781 215.609375 142.957031 214.515625 144.65625 213.488281 C 146.355469 212.460938 148.089844 211.5 149.867188 210.613281 C 151.640625 209.722656 153.449219 208.902344 155.289062 208.152344 C 157.125 207.40625 158.992188 206.730469 160.886719 206.128906 C 162.777344 205.527344 164.691406 205 166.625 204.550781 C 168.558594 204.097656 170.507812 203.726562 172.46875 203.429688 C 174.433594 203.128906 176.40625 202.910156 178.386719 202.769531 C 180.367188 202.625 182.347656 202.5625 184.335938 202.574219 C 191.507812 202.566406 198.546875 203.546875 205.445312 205.515625 C 212.34375 207.484375 218.835938 210.363281 224.925781 214.15625 C 225.308594 214.394531 225.714844 214.59375 226.136719 214.753906 C 226.558594 214.910156 226.996094 215.027344 227.441406 215.101562 C 227.886719 215.175781 228.335938 215.207031 228.789062 215.191406 C 229.242188 215.175781 229.6875 215.117188 230.128906 215.015625 C 230.566406 214.914062 230.996094 214.769531 231.40625 214.582031 C 231.816406 214.394531 232.207031 214.171875 232.574219 213.90625 C 232.945312 213.644531 233.28125 213.347656 233.589844 213.015625 C 233.902344 212.6875 234.175781 212.332031 234.414062 211.945312 C 234.652344 211.5625 234.851562 211.160156 235.011719 210.734375 C 235.171875 210.3125 235.289062 209.878906 235.363281 209.429688 C 235.433594 208.984375 235.464844 208.535156 235.449219 208.085938 C 235.433594 207.632812 235.378906 207.1875 235.273438 206.746094 C 235.171875 206.304688 235.027344 205.878906 234.839844 205.464844 C 234.65625 205.054688 234.429688 204.664062 234.167969 204.296875 C 233.902344 203.929688 233.605469 203.589844 233.277344 203.28125 C 232.945312 202.972656 232.589844 202.699219 232.207031 202.460938 C 228.632812 200.234375 224.921875 198.269531 221.070312 196.566406 C 217.222656 194.859375 213.277344 193.429688 209.226562 192.277344 C 205.179688 191.125 201.070312 190.257812 196.902344 189.679688 C 192.734375 189.097656 188.542969 188.8125 184.335938 188.816406 C 181.988281 188.800781 179.648438 188.878906 177.308594 189.046875 C 174.96875 189.21875 172.636719 189.480469 170.316406 189.832031 C 168 190.1875 165.699219 190.628906 163.414062 191.164062 C 161.128906 191.699219 158.867188 192.320312 156.632812 193.035156 C 154.398438 193.746094 152.195312 194.546875 150.023438 195.429688 C 147.851562 196.316406 145.714844 197.285156 143.621094 198.339844 C 141.523438 199.394531 139.472656 200.527344 137.464844 201.746094 C 135.460938 202.960938 133.503906 204.25 131.597656 205.621094 C 129.695312 206.992188 127.847656 208.433594 126.054688 209.945312 C 124.265625 211.460938 122.535156 213.042969 120.867188 214.695312 C 119.203125 216.347656 117.601562 218.058594 116.070312 219.835938 C 114.539062 221.613281 113.078125 223.449219 111.691406 225.339844 C 110.304688 227.230469 108.992188 229.175781 107.757812 231.171875 C 106.523438 233.164062 105.371094 235.207031 104.296875 237.292969 C 103.222656 239.375 102.234375 241.5 101.328125 243.664062 C 100.421875 245.828125 99.601562 248.023438 98.867188 250.253906 C 98.371094 251.761719 98.0625 253.304688 97.933594 254.886719 C 97.808594 256.46875 97.871094 258.039062 98.125 259.605469 C 98.375 261.171875 98.808594 262.6875 99.421875 264.148438 C 100.035156 265.613281 100.8125 266.980469 101.757812 268.257812 C 102.722656 269.589844 103.835938 270.789062 105.085938 271.859375 C 106.335938 272.929688 107.695312 273.839844 109.164062 274.589844 C 110.628906 275.335938 112.160156 275.90625 113.761719 276.292969 C 115.363281 276.679688 116.984375 276.875 118.632812 276.878906 L 228.59375 276.878906 C 229.046875 276.878906 229.492188 276.835938 229.9375 276.746094 C 230.378906 276.65625 230.808594 276.527344 231.226562 276.355469 C 231.644531 276.183594 232.039062 275.96875 232.414062 275.71875 C 232.792969 275.46875 233.140625 275.183594 233.457031 274.863281 C 233.777344 274.542969 234.0625 274.195312 234.3125 273.820312 C 234.566406 273.445312 234.777344 273.046875 234.949219 272.632812 C 235.121094 272.214844 235.253906 271.785156 235.339844 271.339844 C 235.429688 270.898438 235.472656 270.449219 235.472656 270 C 235.472656 269.546875 235.429688 269.097656 235.339844 268.65625 C 235.253906 268.214844 235.121094 267.78125 234.949219 267.367188 C 234.777344 266.949219 234.566406 266.550781 234.3125 266.175781 C 234.0625 265.800781 233.777344 265.453125 233.457031 265.132812 C 233.140625 264.8125 232.792969 264.527344 232.414062 264.277344 C 232.039062 264.027344 231.644531 263.816406 231.226562 263.640625 C 230.808594 263.46875 230.378906 263.339844 229.9375 263.25 C 229.492188 263.164062 229.046875 263.117188 228.59375 263.117188 Z M 228.59375 263.117188 " fill-opacity="1" fill-rule="nonzero"/></g><g clip-path="url(#c8e6bf27a6)"><path fill="#9ebb6b" d="M 283.632812 235.597656 L 262.992188 235.597656 L 262.992188 214.960938 C 262.992188 214.507812 262.949219 214.0625 262.859375 213.617188 C 262.773438 213.175781 262.640625 212.746094 262.46875 212.328125 C 262.296875 211.910156 262.085938 211.511719 261.832031 211.136719 C 261.582031 210.761719 261.296875 210.414062 260.976562 210.09375 C 260.65625 209.777344 260.3125 209.492188 259.933594 209.238281 C 259.558594 208.988281 259.164062 208.777344 258.746094 208.605469 C 258.328125 208.429688 257.898438 208.300781 257.453125 208.210938 C 257.011719 208.125 256.566406 208.078125 256.113281 208.078125 C 255.660156 208.078125 255.214844 208.125 254.769531 208.210938 C 254.328125 208.300781 253.898438 208.429688 253.480469 208.605469 C 253.0625 208.777344 252.667969 208.988281 252.289062 209.238281 C 251.914062 209.492188 251.566406 209.777344 251.246094 210.09375 C 250.929688 210.414062 250.644531 210.761719 250.390625 211.136719 C 250.140625 211.511719 249.929688 211.910156 249.757812 212.328125 C 249.582031 212.746094 249.453125 213.175781 249.363281 213.617188 C 249.277344 214.0625 249.234375 214.507812 249.234375 214.960938 L 249.234375 235.597656 L 228.59375 235.597656 C 228.140625 235.597656 227.695312 235.644531 227.25 235.730469 C 226.808594 235.820312 226.378906 235.949219 225.960938 236.121094 C 225.542969 236.296875 225.148438 236.507812 224.769531 236.757812 C 224.394531 237.007812 224.046875 237.296875 223.730469 237.613281 C 223.410156 237.933594 223.125 238.28125 222.871094 238.65625 C 222.621094 239.03125 222.410156 239.429688 222.238281 239.847656 C 222.0625 240.265625 221.933594 240.695312 221.847656 241.136719 C 221.757812 241.578125 221.714844 242.027344 221.714844 242.480469 C 221.714844 242.929688 221.757812 243.378906 221.847656 243.820312 C 221.933594 244.265625 222.0625 244.695312 222.238281 245.113281 C 222.410156 245.53125 222.621094 245.925781 222.871094 246.300781 C 223.125 246.675781 223.410156 247.023438 223.730469 247.34375 C 224.046875 247.664062 224.394531 247.949219 224.769531 248.199219 C 225.148438 248.449219 225.542969 248.664062 225.960938 248.835938 C 226.378906 249.007812 226.808594 249.140625 227.25 249.226562 C 227.695312 249.316406 228.140625 249.359375 228.59375 249.359375 L 249.234375 249.359375 L 249.234375 270 C 249.234375 270.449219 249.277344 270.898438 249.363281 271.339844 C 249.453125 271.785156 249.582031 272.214844 249.757812 272.632812 C 249.929688 273.046875 250.140625 273.445312 250.390625 273.820312 C 250.644531 274.195312 250.929688 274.542969 251.246094 274.863281 C 251.566406 275.183594 251.914062 275.46875 252.289062 275.71875 C 252.667969 275.96875 253.0625 276.183594 253.480469 276.355469 C 253.898438 276.527344 254.328125 276.65625 254.769531 276.746094 C 255.214844 276.835938 255.660156 276.878906 256.113281 276.878906 C 256.566406 276.878906 257.011719 276.835938 257.453125 276.746094 C 257.898438 276.65625 258.328125 276.527344 258.746094 276.355469 C 259.164062 276.183594 259.558594 275.96875 259.933594 275.71875 C 260.3125 275.46875 260.65625 275.183594 260.976562 274.863281 C 261.296875 274.542969 261.582031 274.195312 261.832031 273.820312 C 262.085938 273.445312 262.296875 273.046875 262.46875 272.632812 C 262.640625 272.214844 262.773438 271.785156 262.859375 271.339844 C 262.949219 270.898438 262.992188 270.449219 262.992188 270 L 262.992188 249.359375 L 283.632812 249.359375 C 284.085938 249.359375 284.53125 249.316406 284.972656 249.226562 C 285.417969 249.140625 285.847656 249.007812 286.265625 248.835938 C 286.683594 248.664062 287.078125 248.449219 287.453125 248.199219 C 287.832031 247.949219 288.175781 247.664062 288.496094 247.34375 C 288.816406 247.023438 289.101562 246.675781 289.351562 246.300781 C 289.605469 245.925781 289.816406 245.53125 289.988281 245.113281 C 290.160156 244.695312 290.292969 244.265625 290.378906 243.820312 C 290.46875 243.378906 290.511719 242.929688 290.511719 242.480469 C 290.511719 242.027344 290.46875 241.578125 290.378906 241.136719 C 290.292969 240.695312 290.160156 240.265625 289.988281 239.847656 C 289.816406 239.429688 289.605469 239.03125 289.351562 238.65625 C 289.101562 238.28125 288.816406 237.933594 288.496094 237.613281 C 288.175781 237.296875 287.832031 237.007812 287.453125 236.757812 C 287.078125 236.507812 286.683594 236.296875 286.265625 236.121094 C 285.847656 235.949219 285.417969 235.820312 284.972656 235.730469 C 284.53125 235.644531 284.085938 235.597656 283.632812 235.597656 Z M 283.632812 235.597656 " fill-opacity="1" fill-rule="nonzero"/></g></svg>