<svg xmlns="http://www.w3.org/2000/svg" xmlns:xlink="http://www.w3.org/1999/xlink" width="500" zoomAndPan="magnify" viewBox="0 0 375 374.999991" height="500" preserveAspectRatio="xMidYMid meet" version="1.0"><defs><clipPath id="5ace89438b"><path d="M 27.824219 27.824219 L 347.324219 27.824219 L 347.324219 347.324219 L 27.824219 347.324219 Z M 27.824219 27.824219 " clip-rule="nonzero"/></clipPath><clipPath id="a390078989"><path d="M 187.523438 347.222656 C 99.464844 347.222656 27.824219 275.582031 27.824219 187.523438 C 27.824219 99.464844 99.464844 27.824219 187.523438 27.824219 C 275.582031 27.824219 347.222656 99.464844 347.222656 187.523438 C 347.222656 275.582031 275.582031 347.222656 187.523438 347.222656 Z M 187.523438 41.25 C 106.867188 41.25 41.25 106.867188 41.25 187.523438 C 41.25 268.175781 106.867188 333.792969 187.523438 333.792969 C 268.175781 333.792969 333.792969 268.175781 333.792969 187.523438 C 333.792969 106.867188 268.175781 41.25 187.523438 41.25 Z M 187.523438 41.25 " clip-rule="nonzero"/></clipPath><linearGradient x1="-0.0000051127" gradientTransform="matrix(1.342925, 0, 0, 1.342925, 27.822584, 27.822569)" y1="237.838004" x2="237.837997" gradientUnits="userSpaceOnUse" y2="0.00000233373" id="ea4c3dd73a"><stop stop-opacity="1" stop-color="rgb(61.999512%, 73.298645%, 41.999817%)" offset="0"/><stop stop-opacity="1" stop-color="rgb(61.999512%, 73.298645%, 41.999817%)" offset="0.125"/><stop stop-opacity="1" stop-color="rgb(61.999512%, 73.298645%, 41.999817%)" offset="0.140625"/><stop stop-opacity="1" stop-color="rgb(61.86676%, 73.210144%, 41.944885%)" offset="0.148437"/><stop stop-opacity="1" stop-color="rgb(61.164856%, 72.746277%, 41.661072%)" offset="0.152344"/><stop stop-opacity="1" stop-color="rgb(60.597229%, 72.369385%, 41.43219%)" offset="0.15625"/><stop stop-opacity="1" stop-color="rgb(60.028076%, 71.992493%, 41.201782%)" offset="0.160156"/><stop stop-opacity="1" stop-color="rgb(59.460449%, 71.615601%, 40.9729%)" offset="0.164062"/><stop stop-opacity="1" stop-color="rgb(58.892822%, 71.238708%, 40.742493%)" offset="0.167969"/><stop stop-opacity="1" stop-color="rgb(58.325195%, 70.861816%, 40.512085%)" offset="0.171875"/><stop stop-opacity="1" stop-color="rgb(57.756042%, 70.484924%, 40.281677%)" offset="0.175781"/><stop stop-opacity="1" stop-color="rgb(57.188416%, 70.108032%, 40.052795%)" offset="0.179687"/><stop stop-opacity="1" stop-color="rgb(56.619263%, 69.73114%, 39.822388%)" offset="0.183594"/><stop stop-opacity="1" stop-color="rgb(56.051636%, 69.354248%, 39.59198%)" offset="0.1875"/><stop stop-opacity="1" stop-color="rgb(55.484009%, 68.977356%, 39.361572%)" offset="0.191406"/><stop stop-opacity="1" stop-color="rgb(54.916382%, 68.600464%, 39.13269%)" offset="0.195312"/><stop stop-opacity="1" stop-color="rgb(54.347229%, 68.223572%, 38.902283%)" offset="0.199219"/><stop stop-opacity="1" stop-color="rgb(53.779602%, 67.84668%, 38.673401%)" offset="0.203125"/><stop stop-opacity="1" stop-color="rgb(53.210449%, 67.469788%, 38.442993%)" offset="0.207031"/><stop stop-opacity="1" stop-color="rgb(52.642822%, 67.092896%, 38.212585%)" offset="0.210937"/><stop stop-opacity="1" stop-color="rgb(52.075195%, 66.716003%, 37.982178%)" offset="0.214844"/><stop stop-opacity="1" stop-color="rgb(51.507568%, 66.339111%, 37.753296%)" offset="0.21875"/><stop stop-opacity="1" stop-color="rgb(50.938416%, 65.960693%, 37.522888%)" offset="0.222656"/><stop stop-opacity="1" stop-color="rgb(50.370789%, 65.583801%, 37.294006%)" offset="0.226562"/><stop stop-opacity="1" stop-color="rgb(49.801636%, 65.206909%, 37.063599%)" offset="0.230469"/><stop stop-opacity="1" stop-color="rgb(49.234009%, 64.830017%, 36.833191%)" offset="0.234375"/><stop stop-opacity="1" stop-color="rgb(48.664856%, 64.453125%, 36.602783%)" offset="0.238281"/><stop stop-opacity="1" stop-color="rgb(48.097229%, 64.076233%, 36.373901%)" offset="0.242187"/><stop stop-opacity="1" stop-color="rgb(47.529602%, 63.699341%, 36.143494%)" offset="0.246094"/><stop stop-opacity="1" stop-color="rgb(46.961975%, 63.322449%, 35.914612%)" offset="0.25"/><stop stop-opacity="1" stop-color="rgb(46.392822%, 62.945557%, 35.684204%)" offset="0.253906"/><stop stop-opacity="1" stop-color="rgb(45.825195%, 62.568665%, 35.453796%)" offset="0.257812"/><stop stop-opacity="1" stop-color="rgb(45.256042%, 62.191772%, 35.223389%)" offset="0.261719"/><stop stop-opacity="1" stop-color="rgb(44.688416%, 61.81488%, 34.994507%)" offset="0.265625"/><stop stop-opacity="1" stop-color="rgb(44.120789%, 61.437988%, 34.764099%)" offset="0.269531"/><stop stop-opacity="1" stop-color="rgb(43.553162%, 61.061096%, 34.533691%)" offset="0.273438"/><stop stop-opacity="1" stop-color="rgb(42.984009%, 60.684204%, 34.303284%)" offset="0.277344"/><stop stop-opacity="1" stop-color="rgb(42.416382%, 60.307312%, 34.074402%)" offset="0.28125"/><stop stop-opacity="1" stop-color="rgb(41.847229%, 59.93042%, 33.843994%)" offset="0.285156"/><stop stop-opacity="1" stop-color="rgb(41.279602%, 59.553528%, 33.615112%)" offset="0.289062"/><stop stop-opacity="1" stop-color="rgb(40.711975%, 59.176636%, 33.384705%)" offset="0.292969"/><stop stop-opacity="1" stop-color="rgb(40.144348%, 58.799744%, 33.154297%)" offset="0.296875"/><stop stop-opacity="1" stop-color="rgb(39.575195%, 58.422852%, 32.923889%)" offset="0.300781"/><stop stop-opacity="1" stop-color="rgb(39.007568%, 58.045959%, 32.695007%)" offset="0.304688"/><stop stop-opacity="1" stop-color="rgb(38.438416%, 57.669067%, 32.4646%)" offset="0.308594"/><stop stop-opacity="1" stop-color="rgb(37.870789%, 57.292175%, 32.235718%)" offset="0.3125"/><stop stop-opacity="1" stop-color="rgb(37.301636%, 56.915283%, 32.00531%)" offset="0.316406"/><stop stop-opacity="1" stop-color="rgb(36.734009%, 56.538391%, 31.774902%)" offset="0.320312"/><stop stop-opacity="1" stop-color="rgb(36.166382%, 56.161499%, 31.544495%)" offset="0.324219"/><stop stop-opacity="1" stop-color="rgb(35.598755%, 55.784607%, 31.315613%)" offset="0.328125"/><stop stop-opacity="1" stop-color="rgb(35.029602%, 55.407715%, 31.085205%)" offset="0.332031"/><stop stop-opacity="1" stop-color="rgb(34.461975%, 55.030823%, 30.856323%)" offset="0.335938"/><stop stop-opacity="1" stop-color="rgb(33.892822%, 54.653931%, 30.625916%)" offset="0.339844"/><stop stop-opacity="1" stop-color="rgb(33.325195%, 54.277039%, 30.395508%)" offset="0.34375"/><stop stop-opacity="1" stop-color="rgb(32.757568%, 53.900146%, 30.1651%)" offset="0.347656"/><stop stop-opacity="1" stop-color="rgb(32.189941%, 53.523254%, 29.936218%)" offset="0.351562"/><stop stop-opacity="1" stop-color="rgb(31.620789%, 53.146362%, 29.705811%)" offset="0.355469"/><stop stop-opacity="1" stop-color="rgb(31.053162%, 52.76947%, 29.476929%)" offset="0.359375"/><stop stop-opacity="1" stop-color="rgb(30.484009%, 52.392578%, 29.246521%)" offset="0.363281"/><stop stop-opacity="1" stop-color="rgb(29.916382%, 52.015686%, 29.016113%)" offset="0.367188"/><stop stop-opacity="1" stop-color="rgb(29.348755%, 51.637268%, 28.785706%)" offset="0.371094"/><stop stop-opacity="1" stop-color="rgb(28.781128%, 51.260376%, 28.556824%)" offset="0.375"/><stop stop-opacity="1" stop-color="rgb(28.211975%, 50.883484%, 28.326416%)" offset="0.378906"/><stop stop-opacity="1" stop-color="rgb(27.644348%, 50.506592%, 28.096008%)" offset="0.382812"/><stop stop-opacity="1" stop-color="rgb(27.075195%, 50.1297%, 27.865601%)" offset="0.386719"/><stop stop-opacity="1" stop-color="rgb(26.507568%, 49.752808%, 27.636719%)" offset="0.390625"/><stop stop-opacity="1" stop-color="rgb(25.938416%, 49.375916%, 27.406311%)" offset="0.394531"/><stop stop-opacity="1" stop-color="rgb(25.370789%, 48.999023%, 27.177429%)" offset="0.398438"/><stop stop-opacity="1" stop-color="rgb(24.803162%, 48.622131%, 26.947021%)" offset="0.402344"/><stop stop-opacity="1" stop-color="rgb(24.235535%, 48.245239%, 26.716614%)" offset="0.40625"/><stop stop-opacity="1" stop-color="rgb(23.666382%, 47.868347%, 26.486206%)" offset="0.410156"/><stop stop-opacity="1" stop-color="rgb(23.098755%, 47.491455%, 26.257324%)" offset="0.414062"/><stop stop-opacity="1" stop-color="rgb(22.529602%, 47.114563%, 26.026917%)" offset="0.417969"/><stop stop-opacity="1" stop-color="rgb(21.961975%, 46.737671%, 25.798035%)" offset="0.421875"/><stop stop-opacity="1" stop-color="rgb(21.394348%, 46.360779%, 25.567627%)" offset="0.425781"/><stop stop-opacity="1" stop-color="rgb(20.826721%, 45.983887%, 25.337219%)" offset="0.429688"/><stop stop-opacity="1" stop-color="rgb(20.257568%, 45.606995%, 25.106812%)" offset="0.433594"/><stop stop-opacity="1" stop-color="rgb(19.689941%, 45.230103%, 24.87793%)" offset="0.4375"/><stop stop-opacity="1" stop-color="rgb(19.120789%, 44.85321%, 24.647522%)" offset="0.441406"/><stop stop-opacity="1" stop-color="rgb(18.553162%, 44.476318%, 24.41864%)" offset="0.445312"/><stop stop-opacity="1" stop-color="rgb(17.985535%, 44.099426%, 24.188232%)" offset="0.449219"/><stop stop-opacity="1" stop-color="rgb(17.417908%, 43.722534%, 23.957825%)" offset="0.453125"/><stop stop-opacity="1" stop-color="rgb(16.848755%, 43.345642%, 23.727417%)" offset="0.457031"/><stop stop-opacity="1" stop-color="rgb(16.281128%, 42.96875%, 23.498535%)" offset="0.460938"/><stop stop-opacity="1" stop-color="rgb(15.711975%, 42.591858%, 23.268127%)" offset="0.464844"/><stop stop-opacity="1" stop-color="rgb(15.144348%, 42.214966%, 23.039246%)" offset="0.46875"/><stop stop-opacity="1" stop-color="rgb(14.575195%, 41.838074%, 22.808838%)" offset="0.472656"/><stop stop-opacity="1" stop-color="rgb(14.007568%, 41.461182%, 22.57843%)" offset="0.476562"/><stop stop-opacity="1" stop-color="rgb(13.439941%, 41.08429%, 22.348022%)" offset="0.480469"/><stop stop-opacity="1" stop-color="rgb(12.872314%, 40.707397%, 22.119141%)" offset="0.484375"/><stop stop-opacity="1" stop-color="rgb(12.303162%, 40.330505%, 21.888733%)" offset="0.488281"/><stop stop-opacity="1" stop-color="rgb(11.735535%, 39.953613%, 21.658325%)" offset="0.492188"/><stop stop-opacity="1" stop-color="rgb(11.166382%, 39.576721%, 21.427917%)" offset="0.496094"/><stop stop-opacity="1" stop-color="rgb(10.598755%, 39.199829%, 21.199036%)" offset="0.5"/><stop stop-opacity="1" stop-color="rgb(11.408997%, 39.677429%, 21.453857%)" offset="0.503906"/><stop stop-opacity="1" stop-color="rgb(12.219238%, 40.155029%, 21.710205%)" offset="0.507812"/><stop stop-opacity="1" stop-color="rgb(13.02948%, 40.631104%, 21.965027%)" offset="0.511719"/><stop stop-opacity="1" stop-color="rgb(13.839722%, 41.108704%, 22.219849%)" offset="0.515625"/><stop stop-opacity="1" stop-color="rgb(14.649963%, 41.586304%, 22.47467%)" offset="0.519531"/><stop stop-opacity="1" stop-color="rgb(15.460205%, 42.063904%, 22.731018%)" offset="0.523438"/><stop stop-opacity="1" stop-color="rgb(16.270447%, 42.541504%, 22.98584%)" offset="0.527344"/><stop stop-opacity="1" stop-color="rgb(17.080688%, 43.019104%, 23.242188%)" offset="0.53125"/><stop stop-opacity="1" stop-color="rgb(17.89093%, 43.496704%, 23.497009%)" offset="0.535156"/><stop stop-opacity="1" stop-color="rgb(18.701172%, 43.974304%, 23.753357%)" offset="0.539062"/><stop stop-opacity="1" stop-color="rgb(19.511414%, 44.451904%, 24.008179%)" offset="0.542969"/><stop stop-opacity="1" stop-color="rgb(20.321655%, 44.929504%, 24.263%)" offset="0.546875"/><stop stop-opacity="1" stop-color="rgb(21.131897%, 45.407104%, 24.517822%)" offset="0.550781"/><stop stop-opacity="1" stop-color="rgb(21.942139%, 45.884705%, 24.77417%)" offset="0.554687"/><stop stop-opacity="1" stop-color="rgb(22.75238%, 46.362305%, 25.028992%)" offset="0.558594"/><stop stop-opacity="1" stop-color="rgb(23.562622%, 46.839905%, 25.285339%)" offset="0.5625"/><stop stop-opacity="1" stop-color="rgb(24.372864%, 47.317505%, 25.540161%)" offset="0.566406"/><stop stop-opacity="1" stop-color="rgb(25.183105%, 47.795105%, 25.794983%)" offset="0.570312"/><stop stop-opacity="1" stop-color="rgb(25.993347%, 48.272705%, 26.049805%)" offset="0.574219"/><stop stop-opacity="1" stop-color="rgb(26.803589%, 48.750305%, 26.306152%)" offset="0.578125"/><stop stop-opacity="1" stop-color="rgb(27.613831%, 49.226379%, 26.560974%)" offset="0.582031"/><stop stop-opacity="1" stop-color="rgb(28.424072%, 49.703979%, 26.817322%)" offset="0.585938"/><stop stop-opacity="1" stop-color="rgb(29.234314%, 50.18158%, 27.072144%)" offset="0.589844"/><stop stop-opacity="1" stop-color="rgb(30.044556%, 50.65918%, 27.326965%)" offset="0.59375"/><stop stop-opacity="1" stop-color="rgb(30.854797%, 51.13678%, 27.581787%)" offset="0.597656"/><stop stop-opacity="1" stop-color="rgb(31.665039%, 51.61438%, 27.838135%)" offset="0.601562"/><stop stop-opacity="1" stop-color="rgb(32.475281%, 52.09198%, 28.092957%)" offset="0.605469"/><stop stop-opacity="1" stop-color="rgb(33.285522%, 52.56958%, 28.349304%)" offset="0.609375"/><stop stop-opacity="1" stop-color="rgb(34.095764%, 53.04718%, 28.604126%)" offset="0.613281"/><stop stop-opacity="1" stop-color="rgb(34.906006%, 53.52478%, 28.858948%)" offset="0.617187"/><stop stop-opacity="1" stop-color="rgb(35.716248%, 54.00238%, 29.11377%)" offset="0.621094"/><stop stop-opacity="1" stop-color="rgb(36.526489%, 54.47998%, 29.370117%)" offset="0.625"/><stop stop-opacity="1" stop-color="rgb(37.336731%, 54.957581%, 29.624939%)" offset="0.628906"/><stop stop-opacity="1" stop-color="rgb(38.146973%, 55.435181%, 29.881287%)" offset="0.632812"/><stop stop-opacity="1" stop-color="rgb(38.957214%, 55.912781%, 30.136108%)" offset="0.636719"/><stop stop-opacity="1" stop-color="rgb(39.767456%, 56.390381%, 30.39093%)" offset="0.640625"/><stop stop-opacity="1" stop-color="rgb(40.577698%, 56.867981%, 30.645752%)" offset="0.644531"/><stop stop-opacity="1" stop-color="rgb(41.387939%, 57.345581%, 30.9021%)" offset="0.648438"/><stop stop-opacity="1" stop-color="rgb(42.198181%, 57.823181%, 31.156921%)" offset="0.652344"/><stop stop-opacity="1" stop-color="rgb(43.008423%, 58.300781%, 31.413269%)" offset="0.65625"/><stop stop-opacity="1" stop-color="rgb(43.818665%, 58.776855%, 31.668091%)" offset="0.660156"/><stop stop-opacity="1" stop-color="rgb(44.628906%, 59.254456%, 31.922913%)" offset="0.664062"/><stop stop-opacity="1" stop-color="rgb(45.439148%, 59.732056%, 32.177734%)" offset="0.667969"/><stop stop-opacity="1" stop-color="rgb(46.24939%, 60.209656%, 32.434082%)" offset="0.671875"/><stop stop-opacity="1" stop-color="rgb(47.059631%, 60.687256%, 32.688904%)" offset="0.675781"/><stop stop-opacity="1" stop-color="rgb(47.869873%, 61.164856%, 32.945251%)" offset="0.679687"/><stop stop-opacity="1" stop-color="rgb(48.680115%, 61.642456%, 33.200073%)" offset="0.683594"/><stop stop-opacity="1" stop-color="rgb(49.490356%, 62.120056%, 33.454895%)" offset="0.6875"/><stop stop-opacity="1" stop-color="rgb(50.300598%, 62.597656%, 33.709717%)" offset="0.691406"/><stop stop-opacity="1" stop-color="rgb(51.11084%, 63.075256%, 33.966064%)" offset="0.695312"/><stop stop-opacity="1" stop-color="rgb(51.921082%, 63.552856%, 34.220886%)" offset="0.699219"/><stop stop-opacity="1" stop-color="rgb(52.731323%, 64.030457%, 34.477234%)" offset="0.703125"/><stop stop-opacity="1" stop-color="rgb(53.541565%, 64.508057%, 34.732056%)" offset="0.707031"/><stop stop-opacity="1" stop-color="rgb(54.351807%, 64.985657%, 34.988403%)" offset="0.710937"/><stop stop-opacity="1" stop-color="rgb(55.162048%, 65.463257%, 35.243225%)" offset="0.714844"/><stop stop-opacity="1" stop-color="rgb(55.97229%, 65.940857%, 35.498047%)" offset="0.71875"/><stop stop-opacity="1" stop-color="rgb(56.782532%, 66.418457%, 35.752869%)" offset="0.722656"/><stop stop-opacity="1" stop-color="rgb(57.592773%, 66.896057%, 36.009216%)" offset="0.726562"/><stop stop-opacity="1" stop-color="rgb(58.403015%, 67.373657%, 36.264038%)" offset="0.730469"/><stop stop-opacity="1" stop-color="rgb(59.213257%, 67.851257%, 36.520386%)" offset="0.734375"/><stop stop-opacity="1" stop-color="rgb(60.023499%, 68.327332%, 36.775208%)" offset="0.738281"/><stop stop-opacity="1" stop-color="rgb(60.83374%, 68.804932%, 37.030029%)" offset="0.742188"/><stop stop-opacity="1" stop-color="rgb(61.643982%, 69.282532%, 37.284851%)" offset="0.746094"/><stop stop-opacity="1" stop-color="rgb(62.454224%, 69.760132%, 37.541199%)" offset="0.75"/><stop stop-opacity="1" stop-color="rgb(63.264465%, 70.237732%, 37.796021%)" offset="0.753906"/><stop stop-opacity="1" stop-color="rgb(64.074707%, 70.715332%, 38.052368%)" offset="0.757812"/><stop stop-opacity="1" stop-color="rgb(64.884949%, 71.192932%, 38.30719%)" offset="0.761719"/><stop stop-opacity="1" stop-color="rgb(65.69519%, 71.670532%, 38.562012%)" offset="0.765625"/><stop stop-opacity="1" stop-color="rgb(66.505432%, 72.148132%, 38.816833%)" offset="0.769531"/><stop stop-opacity="1" stop-color="rgb(67.315674%, 72.625732%, 39.073181%)" offset="0.773438"/><stop stop-opacity="1" stop-color="rgb(68.125916%, 73.103333%, 39.328003%)" offset="0.777344"/><stop stop-opacity="1" stop-color="rgb(68.936157%, 73.580933%, 39.584351%)" offset="0.78125"/><stop stop-opacity="1" stop-color="rgb(69.746399%, 74.058533%, 39.839172%)" offset="0.785156"/><stop stop-opacity="1" stop-color="rgb(70.556641%, 74.536133%, 40.093994%)" offset="0.789062"/><stop stop-opacity="1" stop-color="rgb(71.366882%, 75.013733%, 40.348816%)" offset="0.792969"/><stop stop-opacity="1" stop-color="rgb(72.177124%, 75.491333%, 40.605164%)" offset="0.796875"/><stop stop-opacity="1" stop-color="rgb(72.987366%, 75.968933%, 40.859985%)" offset="0.800781"/><stop stop-opacity="1" stop-color="rgb(73.797607%, 76.446533%, 41.116333%)" offset="0.804687"/><stop stop-opacity="1" stop-color="rgb(74.607849%, 76.922607%, 41.371155%)" offset="0.808594"/><stop stop-opacity="1" stop-color="rgb(75.418091%, 77.400208%, 41.625977%)" offset="0.8125"/><stop stop-opacity="1" stop-color="rgb(76.228333%, 77.877808%, 41.880798%)" offset="0.816406"/><stop stop-opacity="1" stop-color="rgb(77.038574%, 78.355408%, 42.137146%)" offset="0.820312"/><stop stop-opacity="1" stop-color="rgb(77.848816%, 78.833008%, 42.391968%)" offset="0.824219"/><stop stop-opacity="1" stop-color="rgb(78.659058%, 79.310608%, 42.648315%)" offset="0.828125"/><stop stop-opacity="1" stop-color="rgb(79.469299%, 79.788208%, 42.903137%)" offset="0.832031"/><stop stop-opacity="1" stop-color="rgb(80.279541%, 80.265808%, 43.157959%)" offset="0.835937"/><stop stop-opacity="1" stop-color="rgb(81.089783%, 80.743408%, 43.412781%)" offset="0.839844"/><stop stop-opacity="1" stop-color="rgb(81.900024%, 81.221008%, 43.669128%)" offset="0.84375"/><stop stop-opacity="1" stop-color="rgb(82.710266%, 81.698608%, 43.92395%)" offset="0.847656"/><stop stop-opacity="1" stop-color="rgb(83.520508%, 82.176208%, 44.180298%)" offset="0.851562"/><stop stop-opacity="1" stop-color="rgb(83.709717%, 82.287598%, 44.239807%)" offset="0.859375"/><stop stop-opacity="1" stop-color="rgb(83.898926%, 82.398987%, 44.299316%)" offset="0.875"/><stop stop-opacity="1" stop-color="rgb(83.898926%, 82.398987%, 44.299316%)" offset="1"/></linearGradient><clipPath id="47de705806"><path d="M 89.964844 89.964844 L 284.964844 89.964844 L 284.964844 284.964844 L 89.964844 284.964844 Z M 89.964844 89.964844 " clip-rule="nonzero"/></clipPath></defs><g clip-path="url(#5ace89438b)"><g clip-path="url(#a390078989)"><path fill="url(#ea4c3dd73a)" d="M 27.824219 27.824219 L 27.824219 347.222656 L 347.222656 347.222656 L 347.222656 27.824219 Z M 27.824219 27.824219 " fill-rule="nonzero"/></g></g><path fill="#1b6436" d="M 248.636719 222.921875 C 247.347656 225.148438 247.589844 227.941406 249.132812 229.992188 L 251.5625 233.21875 L 259.382812 243.601562 C 261.339844 246.203125 261.085938 249.851562 258.78125 252.152344 L 252.210938 258.726562 C 249.910156 261.023438 246.269531 261.28125 243.667969 259.328125 L 230.019531 249.085938 C 227.957031 247.535156 225.152344 247.300781 222.929688 248.605469 C 217.597656 251.738281 211.804688 254.140625 205.695312 255.777344 C 203.226562 256.4375 201.4375 258.578125 201.070312 261.109375 L 198.636719 277.992188 C 198.171875 281.207031 195.417969 283.59375 192.167969 283.59375 L 182.882812 283.59375 C 179.636719 283.59375 176.882812 281.207031 176.417969 277.992188 L 173.984375 261.113281 C 173.617188 258.582031 171.824219 256.441406 169.351562 255.78125 C 163.207031 254.144531 157.421875 251.738281 152.058594 248.632812 C 149.839844 247.34375 147.050781 247.585938 144.996094 249.125 L 131.382812 259.332031 C 128.785156 261.285156 125.144531 261.027344 122.84375 258.726562 L 116.261719 252.140625 C 113.960938 249.84375 113.703125 246.207031 115.648438 243.605469 L 123.429688 233.21875 L 125.914062 229.929688 C 127.480469 227.851562 127.675781 225.035156 126.371094 222.785156 C 123.292969 217.480469 120.886719 211.765625 119.28125 205.722656 C 118.613281 203.21875 116.484375 201.378906 113.921875 201.015625 L 97.011719 198.621094 C 93.792969 198.167969 91.394531 195.410156 91.394531 192.15625 L 91.394531 182.820312 C 91.394531 179.574219 93.78125 176.816406 97 176.355469 L 113.929688 173.917969 C 116.488281 173.550781 118.609375 171.714844 119.273438 169.214844 C 120.882812 163.167969 123.304688 157.476562 126.382812 152.171875 C 126.21875 149.566406 126.09375 147.609375 125.929688 145.003906 L 115.660156 131.320312 C 113.707031 128.71875 113.964844 125.078125 116.265625 122.777344 L 122.835938 116.207031 C 125.140625 113.902344 128.785156 113.648438 131.386719 115.605469 L 144.996094 125.855469 C 147.050781 127.398438 149.84375 127.640625 152.066406 126.351562 C 157.425781 123.246094 163.210938 120.84375 169.351562 119.207031 C 171.824219 118.550781 173.617188 116.40625 173.984375 113.875 L 176.417969 96.996094 C 176.882812 93.78125 179.636719 91.394531 182.882812 91.394531 L 192.167969 91.394531 C 195.417969 91.394531 198.171875 93.78125 198.636719 96.996094 L 201.070312 113.886719 C 201.4375 116.421875 203.238281 118.554688 205.710938 119.21875 C 210.445312 120.488281 214.976562 122.226562 219.269531 124.398438 C 220.476562 124.984375 221.652344 125.617188 222.800781 126.289062 C 225.082031 127.621094 227.925781 127.476562 230.03125 125.886719 L 243.667969 115.609375 C 246.269531 113.648438 249.914062 113.90625 252.21875 116.207031 L 258.789062 122.777344 C 261.089844 125.078125 261.347656 128.71875 259.394531 131.320312 L 249.132812 144.988281 C 247.589844 147.042969 247.351562 149.835938 248.644531 152.058594 C 251.742188 157.390625 254.140625 163.183594 255.777344 169.289062 C 256.4375 171.761719 258.578125 173.554688 261.109375 173.917969 L 277.992188 176.355469 C 281.207031 176.816406 283.59375 179.570312 283.59375 182.820312 L 283.59375 192.15625 C 283.59375 195.410156 281.199219 198.167969 277.976562 198.625 L 261.125 201.015625 C 258.589844 201.375 256.4375 203.171875 255.777344 205.648438 " fill-opacity="1" fill-rule="nonzero"/><g clip-path="url(#47de705806)"><path fill="#1b6436" d="M 192.167969 285.070312 L 182.882812 285.070312 C 178.925781 285.070312 175.519531 282.117188 174.957031 278.207031 L 172.519531 261.324219 C 172.234375 259.320312 170.839844 257.707031 168.96875 257.210938 C 162.761719 255.558594 156.820312 253.097656 151.316406 249.910156 C 149.636719 248.941406 147.503906 249.089844 145.882812 250.304688 L 132.269531 260.515625 C 129.101562 262.886719 124.59375 262.570312 121.800781 259.769531 L 115.214844 253.183594 C 112.414062 250.386719 112.09375 245.886719 114.46875 242.71875 L 124.730469 229.039062 C 125.953125 227.421875 126.097656 225.253906 125.09375 223.527344 C 121.902344 218.027344 119.464844 212.167969 117.851562 206.105469 C 117.34375 204.1875 115.71875 202.761719 113.710938 202.476562 L 96.808594 200.085938 C 92.878906 199.527344 89.917969 196.121094 89.917969 192.15625 L 89.917969 182.820312 C 89.917969 178.863281 92.871094 175.453125 96.785156 174.890625 L 113.71875 172.457031 C 115.71875 172.167969 117.335938 170.746094 117.847656 168.835938 C 119.402344 162.980469 121.769531 157.257812 124.878906 151.820312 L 124.484375 145.535156 L 114.480469 132.207031 C 112.101562 129.035156 112.417969 124.539062 115.222656 121.734375 L 121.792969 115.160156 C 124.59375 112.359375 129.105469 112.039062 132.273438 114.425781 L 145.882812 124.671875 C 147.507812 125.890625 149.644531 126.050781 151.328125 125.074219 C 156.828125 121.886719 162.765625 119.429688 168.96875 117.78125 C 170.839844 117.28125 172.234375 115.664062 172.519531 113.664062 L 174.957031 96.785156 C 175.519531 92.871094 178.925781 89.917969 182.882812 89.917969 L 192.167969 89.917969 C 196.121094 89.917969 199.535156 92.871094 200.101562 96.785156 L 202.535156 113.671875 C 202.820312 115.671875 204.21875 117.289062 206.09375 117.789062 C 210.878906 119.074219 215.539062 120.855469 219.9375 123.078125 C 221.15625 123.671875 222.367188 124.324219 223.546875 125.011719 C 225.320312 126.039062 227.515625 125.929688 229.144531 124.703125 L 242.777344 114.429688 C 245.953125 112.039062 250.460938 112.359375 253.261719 115.164062 L 259.835938 121.734375 C 262.636719 124.539062 262.953125 129.039062 260.574219 132.207031 L 250.3125 145.875 C 249.097656 147.5 248.941406 149.636719 249.921875 151.316406 C 253.089844 156.765625 255.539062 162.683594 257.207031 168.910156 C 257.703125 170.773438 259.316406 172.167969 261.320312 172.457031 L 278.203125 174.890625 C 282.117188 175.453125 285.070312 178.867188 285.070312 182.820312 L 285.070312 192.15625 C 285.070312 196.121094 282.109375 199.527344 278.183594 200.089844 L 261.332031 202.476562 C 259.324219 202.765625 257.703125 204.15625 257.207031 206.027344 C 256.996094 206.820312 256.203125 207.296875 255.402344 207.078125 C 254.609375 206.867188 254.144531 206.058594 254.351562 205.273438 C 255.152344 202.25 257.730469 200.003906 260.917969 199.550781 L 277.769531 197.160156 C 280.246094 196.808594 282.117188 194.65625 282.117188 192.15625 L 282.117188 182.820312 C 282.117188 180.324219 280.25 178.171875 277.78125 177.816406 L 260.898438 175.382812 C 257.726562 174.925781 255.152344 172.679688 254.347656 169.671875 C 252.753906 163.699219 250.402344 158.027344 247.367188 152.800781 C 245.789062 150.089844 246.019531 146.675781 247.949219 144.101562 L 258.210938 130.433594 C 259.714844 128.433594 259.515625 125.59375 257.746094 123.824219 L 251.171875 117.253906 C 249.398438 115.476562 246.558594 115.285156 244.554688 116.789062 L 230.921875 127.066406 C 228.347656 129.007812 224.863281 129.207031 222.058594 127.566406 C 220.941406 126.914062 219.796875 126.296875 218.625 125.730469 C 214.382812 123.582031 209.917969 121.875 205.328125 120.648438 C 202.308594 119.835938 200.066406 117.265625 199.609375 114.09375 L 197.171875 97.207031 C 196.816406 94.738281 194.664062 92.875 192.167969 92.875 L 182.882812 92.875 C 180.386719 92.875 178.238281 94.738281 177.882812 97.207031 L 175.445312 114.085938 C 174.992188 117.261719 172.746094 119.832031 169.730469 120.636719 C 163.777344 122.222656 158.082031 124.574219 152.808594 127.632812 C 150.089844 129.203125 146.675781 128.96875 144.105469 127.035156 L 130.496094 116.789062 C 128.503906 115.277344 125.652344 115.480469 123.882812 117.25 L 117.308594 123.824219 C 115.542969 125.59375 115.34375 128.433594 116.84375 130.433594 L 127.113281 144.117188 C 127.285156 144.34375 127.390625 144.621094 127.40625 144.910156 L 127.855469 152.078125 C 127.875 152.371094 127.808594 152.660156 127.660156 152.914062 C 124.570312 158.242188 122.226562 163.851562 120.703125 169.59375 C 119.886719 172.652344 117.308594 174.925781 114.140625 175.382812 L 97.207031 177.820312 C 94.738281 178.171875 92.875 180.324219 92.875 182.820312 L 92.875 192.15625 C 92.875 194.65625 94.742188 196.808594 97.222656 197.160156 L 114.125 199.550781 C 117.308594 200 119.894531 202.277344 120.710938 205.34375 C 122.253906 211.152344 124.59375 216.773438 127.652344 222.042969 C 129.25 224.804688 129.03125 228.25 127.089844 230.820312 L 116.835938 244.492188 C 115.335938 246.488281 115.539062 249.328125 117.304688 251.09375 L 123.890625 257.683594 C 125.652344 259.449219 128.496094 259.652344 130.496094 258.148438 L 144.109375 247.941406 C 146.679688 246.011719 150.089844 245.78125 152.796875 247.351562 C 158.082031 250.410156 163.773438 252.765625 169.730469 254.355469 C 172.746094 255.15625 174.992188 257.726562 175.445312 260.902344 L 177.882812 277.785156 C 178.238281 280.253906 180.386719 282.117188 182.882812 282.117188 L 192.167969 282.117188 C 194.664062 282.117188 196.816406 280.253906 197.171875 277.785156 L 199.605469 260.898438 C 200.066406 257.726562 202.308594 255.152344 205.316406 254.347656 C 211.308594 252.746094 216.976562 250.386719 222.179688 247.332031 C 224.890625 245.738281 228.316406 245.957031 230.90625 247.902344 L 244.554688 258.148438 C 246.550781 259.644531 249.394531 259.449219 251.164062 257.679688 L 257.738281 251.105469 C 259.507812 249.335938 259.707031 246.492188 258.203125 244.492188 L 247.953125 230.882812 C 246.019531 228.308594 245.785156 224.890625 247.359375 222.183594 C 247.769531 221.46875 248.675781 221.234375 249.378906 221.644531 C 250.085938 222.054688 250.324219 222.957031 249.914062 223.664062 C 248.9375 225.347656 249.09375 227.484375 250.3125 229.105469 L 260.5625 242.714844 C 262.949219 245.878906 262.632812 250.386719 259.828125 253.195312 L 253.253906 259.769531 C 250.453125 262.570312 245.953125 262.898438 242.78125 260.511719 L 229.132812 250.265625 C 227.503906 249.042969 225.359375 248.886719 223.675781 249.878906 C 218.246094 253.070312 212.324219 255.535156 206.078125 257.207031 C 204.214844 257.703125 202.820312 259.316406 202.53125 261.320312 L 200.101562 278.207031 C 199.535156 282.117188 196.121094 285.070312 192.167969 285.070312 Z M 192.167969 285.070312 " fill-opacity="1" fill-rule="nonzero"/></g><path fill="#d6d271" d="M 173.242188 142.453125 C 177.738281 141.03125 182.527344 140.265625 187.496094 140.265625 C 213.578125 140.265625 234.742188 161.394531 234.742188 187.476562 C 234.742188 200.382812 229.59375 212.023438 221.261719 220.550781 C 212.65625 229.308594 200.707031 234.722656 187.496094 234.722656 C 174.28125 234.722656 162.335938 229.308594 153.730469 220.550781 C 145.394531 212.023438 140.246094 200.382812 140.246094 187.476562 C 140.246094 171.074219 148.617188 156.632812 161.316406 148.167969 " fill-opacity="1" fill-rule="nonzero"/><path fill="#1b6436" d="M 187.492188 236.203125 C 174.300781 236.203125 161.9375 231.011719 152.675781 221.585938 C 143.707031 212.414062 138.769531 200.300781 138.769531 187.476562 C 138.769531 171.160156 146.890625 156.003906 160.496094 146.941406 C 161.164062 146.488281 162.089844 146.667969 162.546875 147.347656 C 163 148.027344 162.8125 148.945312 162.136719 149.398438 C 149.355469 157.914062 141.722656 172.148438 141.722656 187.476562 C 141.722656 199.523438 146.363281 210.902344 154.789062 219.515625 C 163.484375 228.371094 175.101562 233.246094 187.492188 233.246094 C 199.890625 233.246094 211.507812 228.371094 220.203125 219.511719 C 228.625 210.902344 233.265625 199.523438 233.265625 187.476562 C 233.265625 162.257812 212.734375 141.746094 187.492188 141.746094 C 182.78125 141.746094 178.136719 142.457031 173.6875 143.859375 C 172.910156 144.109375 172.082031 143.675781 171.832031 142.894531 C 171.585938 142.117188 172.015625 141.289062 172.796875 141.042969 C 177.53125 139.546875 182.480469 138.789062 187.492188 138.789062 C 214.359375 138.789062 236.21875 160.628906 236.21875 187.476562 C 236.21875 200.300781 231.28125 212.414062 222.316406 221.582031 C 213.054688 231.011719 200.6875 236.203125 187.492188 236.203125 Z M 187.492188 236.203125 " fill-opacity="1" fill-rule="nonzero"/><path fill="#9ebb6b" d="M 221.261719 220.550781 C 212.65625 229.308594 200.707031 234.722656 187.496094 234.722656 C 174.28125 234.722656 162.335938 229.308594 153.730469 220.550781 C 155.574219 216.746094 158.03125 213.328125 160.988281 210.410156 C 167.789062 203.609375 177.160156 199.421875 187.496094 199.421875 C 202.320312 199.421875 215.152344 208.027344 221.261719 220.550781 Z M 221.261719 220.550781 " fill-opacity="1" fill-rule="nonzero"/><path fill="#1b6436" d="M 187.492188 236.203125 C 174.300781 236.203125 161.9375 231.011719 152.675781 221.585938 C 152.238281 221.136719 152.128906 220.464844 152.398438 219.90625 C 154.308594 215.964844 156.847656 212.417969 159.949219 209.355469 C 167.308594 202 177.089844 197.945312 187.492188 197.945312 C 202.535156 197.945312 215.984375 206.355469 222.585938 219.902344 C 222.859375 220.460938 222.75 221.136719 222.3125 221.585938 C 213.054688 231.011719 200.6875 236.203125 187.492188 236.203125 Z M 155.53125 220.257812 C 164.144531 228.640625 175.453125 233.246094 187.492188 233.246094 C 199.539062 233.246094 210.84375 228.644531 219.457031 220.257812 C 213.199219 208.289062 201.046875 200.898438 187.492188 200.898438 C 177.882812 200.898438 168.839844 204.648438 162.035156 211.453125 C 159.414062 214.039062 157.230469 216.996094 155.53125 220.257812 Z M 155.53125 220.257812 " fill-opacity="1" fill-rule="nonzero"/><path fill="#9ebb6b" d="M 208.257812 178.652344 C 208.257812 179.332031 208.226562 180.011719 208.160156 180.6875 C 208.09375 181.363281 207.992188 182.035156 207.859375 182.703125 C 207.726562 183.367188 207.5625 184.027344 207.367188 184.679688 C 207.167969 185.328125 206.941406 185.96875 206.679688 186.597656 C 206.417969 187.222656 206.128906 187.839844 205.808594 188.4375 C 205.488281 189.039062 205.140625 189.621094 204.761719 190.183594 C 204.382812 190.75 203.980469 191.296875 203.546875 191.820312 C 203.117188 192.347656 202.660156 192.851562 202.179688 193.332031 C 201.699219 193.8125 201.195312 194.265625 200.667969 194.699219 C 200.144531 195.128906 199.597656 195.535156 199.035156 195.914062 C 198.46875 196.289062 197.886719 196.640625 197.285156 196.960938 C 196.6875 197.28125 196.074219 197.570312 195.445312 197.832031 C 194.816406 198.089844 194.175781 198.320312 193.527344 198.515625 C 192.875 198.714844 192.21875 198.878906 191.550781 199.011719 C 190.882812 199.144531 190.210938 199.246094 189.535156 199.3125 C 188.859375 199.378906 188.179688 199.410156 187.5 199.410156 C 186.820312 199.410156 186.140625 199.378906 185.464844 199.3125 C 184.789062 199.246094 184.117188 199.144531 183.449219 199.011719 C 182.785156 198.878906 182.125 198.714844 181.472656 198.515625 C 180.824219 198.320312 180.183594 198.089844 179.554688 197.832031 C 178.929688 197.570312 178.3125 197.28125 177.714844 196.960938 C 177.113281 196.640625 176.53125 196.289062 175.96875 195.914062 C 175.402344 195.535156 174.855469 195.128906 174.332031 194.699219 C 173.804688 194.265625 173.300781 193.8125 172.820312 193.332031 C 172.339844 192.851562 171.886719 192.347656 171.453125 191.820312 C 171.023438 191.296875 170.617188 190.75 170.238281 190.183594 C 169.863281 189.621094 169.511719 189.039062 169.191406 188.4375 C 168.871094 187.839844 168.582031 187.222656 168.320312 186.597656 C 168.0625 185.96875 167.832031 185.328125 167.636719 184.679688 C 167.4375 184.027344 167.273438 183.367188 167.140625 182.703125 C 167.007812 182.035156 166.90625 181.363281 166.839844 180.6875 C 166.773438 180.011719 166.742188 179.332031 166.742188 178.652344 C 166.742188 177.972656 166.773438 177.292969 166.839844 176.617188 C 166.90625 175.941406 167.007812 175.269531 167.140625 174.601562 C 167.273438 173.933594 167.4375 173.277344 167.636719 172.625 C 167.832031 171.976562 168.0625 171.335938 168.320312 170.707031 C 168.582031 170.078125 168.871094 169.464844 169.191406 168.867188 C 169.511719 168.265625 169.863281 167.683594 170.238281 167.117188 C 170.617188 166.554688 171.023438 166.007812 171.453125 165.484375 C 171.886719 164.957031 172.339844 164.453125 172.820312 163.972656 C 173.300781 163.492188 173.804688 163.035156 174.332031 162.605469 C 174.855469 162.171875 175.402344 161.769531 175.96875 161.390625 C 176.53125 161.015625 177.113281 160.664062 177.714844 160.34375 C 178.3125 160.023438 178.929688 159.734375 179.554688 159.472656 C 180.183594 159.214844 180.824219 158.984375 181.472656 158.785156 C 182.125 158.589844 182.785156 158.425781 183.449219 158.292969 C 184.117188 158.160156 184.789062 158.058594 185.464844 157.992188 C 186.140625 157.925781 186.820312 157.894531 187.5 157.894531 C 188.179688 157.894531 188.859375 157.925781 189.535156 157.992188 C 190.210938 158.058594 190.882812 158.160156 191.550781 158.292969 C 192.21875 158.425781 192.875 158.589844 193.527344 158.785156 C 194.175781 158.984375 194.816406 159.214844 195.445312 159.472656 C 196.074219 159.734375 196.6875 160.023438 197.285156 160.34375 C 197.886719 160.664062 198.46875 161.015625 199.035156 161.390625 C 199.597656 161.769531 200.144531 162.171875 200.667969 162.605469 C 201.195312 163.035156 201.699219 163.492188 202.179688 163.972656 C 202.660156 164.453125 203.117188 164.957031 203.546875 165.484375 C 203.980469 166.007812 204.382812 166.554688 204.761719 167.117188 C 205.140625 167.683594 205.488281 168.265625 205.808594 168.867188 C 206.128906 169.464844 206.417969 170.078125 206.679688 170.707031 C 206.941406 171.335938 207.167969 171.976562 207.367188 172.625 C 207.5625 173.277344 207.726562 173.933594 207.859375 174.601562 C 207.992188 175.269531 208.09375 175.941406 208.160156 176.617188 C 208.226562 177.292969 208.257812 177.972656 208.257812 178.652344 Z M 208.257812 178.652344 " fill-opacity="1" fill-rule="nonzero"/><path fill="#1b6436" d="M 187.5 200.886719 C 175.238281 200.886719 165.265625 190.914062 165.265625 178.648438 C 165.265625 166.390625 175.238281 156.414062 187.5 156.414062 C 199.761719 156.414062 209.738281 166.390625 209.738281 178.648438 C 209.738281 190.914062 199.761719 200.886719 187.5 200.886719 Z M 187.5 159.371094 C 176.871094 159.371094 168.21875 168.019531 168.21875 178.648438 C 168.21875 189.28125 176.871094 197.933594 187.5 197.933594 C 198.132812 197.933594 206.78125 189.28125 206.78125 178.648438 C 206.78125 168.019531 198.132812 159.371094 187.5 159.371094 Z M 187.5 159.371094 " fill-opacity="1" fill-rule="nonzero"/></svg>