<svg xmlns="http://www.w3.org/2000/svg" xmlns:xlink="http://www.w3.org/1999/xlink" width="500" zoomAndPan="magnify" viewBox="0 0 375 374.999991" height="500" preserveAspectRatio="xMidYMid meet" version="1.0"><defs><clipPath id="d1e8900ca8"><path d="M 27.824219 27.824219 L 347.324219 27.824219 L 347.324219 347.324219 L 27.824219 347.324219 Z M 27.824219 27.824219 " clip-rule="nonzero"/></clipPath><clipPath id="e7d36f453f"><path d="M 187.523438 347.222656 C 99.464844 347.222656 27.824219 275.582031 27.824219 187.523438 C 27.824219 99.464844 99.464844 27.824219 187.523438 27.824219 C 275.582031 27.824219 347.222656 99.464844 347.222656 187.523438 C 347.222656 275.582031 275.582031 347.222656 187.523438 347.222656 Z M 187.523438 41.25 C 106.867188 41.25 41.25 106.867188 41.25 187.523438 C 41.25 268.175781 106.867188 333.792969 187.523438 333.792969 C 268.175781 333.792969 333.792969 268.175781 333.792969 187.523438 C 333.792969 106.867188 268.175781 41.25 187.523438 41.25 Z M 187.523438 41.25 " clip-rule="nonzero"/></clipPath><linearGradient x1="-0.0000051127" gradientTransform="matrix(1.342925, 0, 0, 1.342925, 27.822584, 27.822569)" y1="237.838004" x2="237.837997" gradientUnits="userSpaceOnUse" y2="0.00000233373" id="862f690b50"><stop stop-opacity="1" stop-color="rgb(61.999512%, 73.298645%, 41.999817%)" offset="0"/><stop stop-opacity="1" stop-color="rgb(61.999512%, 73.298645%, 41.999817%)" offset="0.125"/><stop stop-opacity="1" stop-color="rgb(61.999512%, 73.298645%, 41.999817%)" offset="0.140625"/><stop stop-opacity="1" stop-color="rgb(61.86676%, 73.210144%, 41.944885%)" offset="0.148437"/><stop stop-opacity="1" stop-color="rgb(61.164856%, 72.746277%, 41.661072%)" offset="0.152344"/><stop stop-opacity="1" stop-color="rgb(60.597229%, 72.369385%, 41.43219%)" offset="0.15625"/><stop stop-opacity="1" stop-color="rgb(60.028076%, 71.992493%, 41.201782%)" offset="0.160156"/><stop stop-opacity="1" stop-color="rgb(59.460449%, 71.615601%, 40.9729%)" offset="0.164062"/><stop stop-opacity="1" stop-color="rgb(58.892822%, 71.238708%, 40.742493%)" offset="0.167969"/><stop stop-opacity="1" stop-color="rgb(58.325195%, 70.861816%, 40.512085%)" offset="0.171875"/><stop stop-opacity="1" stop-color="rgb(57.756042%, 70.484924%, 40.281677%)" offset="0.175781"/><stop stop-opacity="1" stop-color="rgb(57.188416%, 70.108032%, 40.052795%)" offset="0.179687"/><stop stop-opacity="1" stop-color="rgb(56.619263%, 69.73114%, 39.822388%)" offset="0.183594"/><stop stop-opacity="1" stop-color="rgb(56.051636%, 69.354248%, 39.59198%)" offset="0.1875"/><stop stop-opacity="1" stop-color="rgb(55.484009%, 68.977356%, 39.361572%)" offset="0.191406"/><stop stop-opacity="1" stop-color="rgb(54.916382%, 68.600464%, 39.13269%)" offset="0.195312"/><stop stop-opacity="1" stop-color="rgb(54.347229%, 68.223572%, 38.902283%)" offset="0.199219"/><stop stop-opacity="1" stop-color="rgb(53.779602%, 67.84668%, 38.673401%)" offset="0.203125"/><stop stop-opacity="1" stop-color="rgb(53.210449%, 67.469788%, 38.442993%)" offset="0.207031"/><stop stop-opacity="1" stop-color="rgb(52.642822%, 67.092896%, 38.212585%)" offset="0.210937"/><stop stop-opacity="1" stop-color="rgb(52.075195%, 66.716003%, 37.982178%)" offset="0.214844"/><stop stop-opacity="1" stop-color="rgb(51.507568%, 66.339111%, 37.753296%)" offset="0.21875"/><stop stop-opacity="1" stop-color="rgb(50.938416%, 65.960693%, 37.522888%)" offset="0.222656"/><stop stop-opacity="1" stop-color="rgb(50.370789%, 65.583801%, 37.294006%)" offset="0.226562"/><stop stop-opacity="1" stop-color="rgb(49.801636%, 65.206909%, 37.063599%)" offset="0.230469"/><stop stop-opacity="1" stop-color="rgb(49.234009%, 64.830017%, 36.833191%)" offset="0.234375"/><stop stop-opacity="1" stop-color="rgb(48.664856%, 64.453125%, 36.602783%)" offset="0.238281"/><stop stop-opacity="1" stop-color="rgb(48.097229%, 64.076233%, 36.373901%)" offset="0.242187"/><stop stop-opacity="1" stop-color="rgb(47.529602%, 63.699341%, 36.143494%)" offset="0.246094"/><stop stop-opacity="1" stop-color="rgb(46.961975%, 63.322449%, 35.914612%)" offset="0.25"/><stop stop-opacity="1" stop-color="rgb(46.392822%, 62.945557%, 35.684204%)" offset="0.253906"/><stop stop-opacity="1" stop-color="rgb(45.825195%, 62.568665%, 35.453796%)" offset="0.257812"/><stop stop-opacity="1" stop-color="rgb(45.256042%, 62.191772%, 35.223389%)" offset="0.261719"/><stop stop-opacity="1" stop-color="rgb(44.688416%, 61.81488%, 34.994507%)" offset="0.265625"/><stop stop-opacity="1" stop-color="rgb(44.120789%, 61.437988%, 34.764099%)" offset="0.269531"/><stop stop-opacity="1" stop-color="rgb(43.553162%, 61.061096%, 34.533691%)" offset="0.273438"/><stop stop-opacity="1" stop-color="rgb(42.984009%, 60.684204%, 34.303284%)" offset="0.277344"/><stop stop-opacity="1" stop-color="rgb(42.416382%, 60.307312%, 34.074402%)" offset="0.28125"/><stop stop-opacity="1" stop-color="rgb(41.847229%, 59.93042%, 33.843994%)" offset="0.285156"/><stop stop-opacity="1" stop-color="rgb(41.279602%, 59.553528%, 33.615112%)" offset="0.289062"/><stop stop-opacity="1" stop-color="rgb(40.711975%, 59.176636%, 33.384705%)" offset="0.292969"/><stop stop-opacity="1" stop-color="rgb(40.144348%, 58.799744%, 33.154297%)" offset="0.296875"/><stop stop-opacity="1" stop-color="rgb(39.575195%, 58.422852%, 32.923889%)" offset="0.300781"/><stop stop-opacity="1" stop-color="rgb(39.007568%, 58.045959%, 32.695007%)" offset="0.304688"/><stop stop-opacity="1" stop-color="rgb(38.438416%, 57.669067%, 32.4646%)" offset="0.308594"/><stop stop-opacity="1" stop-color="rgb(37.870789%, 57.292175%, 32.235718%)" offset="0.3125"/><stop stop-opacity="1" stop-color="rgb(37.301636%, 56.915283%, 32.00531%)" offset="0.316406"/><stop stop-opacity="1" stop-color="rgb(36.734009%, 56.538391%, 31.774902%)" offset="0.320312"/><stop stop-opacity="1" stop-color="rgb(36.166382%, 56.161499%, 31.544495%)" offset="0.324219"/><stop stop-opacity="1" stop-color="rgb(35.598755%, 55.784607%, 31.315613%)" offset="0.328125"/><stop stop-opacity="1" stop-color="rgb(35.029602%, 55.407715%, 31.085205%)" offset="0.332031"/><stop stop-opacity="1" stop-color="rgb(34.461975%, 55.030823%, 30.856323%)" offset="0.335938"/><stop stop-opacity="1" stop-color="rgb(33.892822%, 54.653931%, 30.625916%)" offset="0.339844"/><stop stop-opacity="1" stop-color="rgb(33.325195%, 54.277039%, 30.395508%)" offset="0.34375"/><stop stop-opacity="1" stop-color="rgb(32.757568%, 53.900146%, 30.1651%)" offset="0.347656"/><stop stop-opacity="1" stop-color="rgb(32.189941%, 53.523254%, 29.936218%)" offset="0.351562"/><stop stop-opacity="1" stop-color="rgb(31.620789%, 53.146362%, 29.705811%)" offset="0.355469"/><stop stop-opacity="1" stop-color="rgb(31.053162%, 52.76947%, 29.476929%)" offset="0.359375"/><stop stop-opacity="1" stop-color="rgb(30.484009%, 52.392578%, 29.246521%)" offset="0.363281"/><stop stop-opacity="1" stop-color="rgb(29.916382%, 52.015686%, 29.016113%)" offset="0.367188"/><stop stop-opacity="1" stop-color="rgb(29.348755%, 51.637268%, 28.785706%)" offset="0.371094"/><stop stop-opacity="1" stop-color="rgb(28.781128%, 51.260376%, 28.556824%)" offset="0.375"/><stop stop-opacity="1" stop-color="rgb(28.211975%, 50.883484%, 28.326416%)" offset="0.378906"/><stop stop-opacity="1" stop-color="rgb(27.644348%, 50.506592%, 28.096008%)" offset="0.382812"/><stop stop-opacity="1" stop-color="rgb(27.075195%, 50.1297%, 27.865601%)" offset="0.386719"/><stop stop-opacity="1" stop-color="rgb(26.507568%, 49.752808%, 27.636719%)" offset="0.390625"/><stop stop-opacity="1" stop-color="rgb(25.938416%, 49.375916%, 27.406311%)" offset="0.394531"/><stop stop-opacity="1" stop-color="rgb(25.370789%, 48.999023%, 27.177429%)" offset="0.398438"/><stop stop-opacity="1" stop-color="rgb(24.803162%, 48.622131%, 26.947021%)" offset="0.402344"/><stop stop-opacity="1" stop-color="rgb(24.235535%, 48.245239%, 26.716614%)" offset="0.40625"/><stop stop-opacity="1" stop-color="rgb(23.666382%, 47.868347%, 26.486206%)" offset="0.410156"/><stop stop-opacity="1" stop-color="rgb(23.098755%, 47.491455%, 26.257324%)" offset="0.414062"/><stop stop-opacity="1" stop-color="rgb(22.529602%, 47.114563%, 26.026917%)" offset="0.417969"/><stop stop-opacity="1" stop-color="rgb(21.961975%, 46.737671%, 25.798035%)" offset="0.421875"/><stop stop-opacity="1" stop-color="rgb(21.394348%, 46.360779%, 25.567627%)" offset="0.425781"/><stop stop-opacity="1" stop-color="rgb(20.826721%, 45.983887%, 25.337219%)" offset="0.429688"/><stop stop-opacity="1" stop-color="rgb(20.257568%, 45.606995%, 25.106812%)" offset="0.433594"/><stop stop-opacity="1" stop-color="rgb(19.689941%, 45.230103%, 24.87793%)" offset="0.4375"/><stop stop-opacity="1" stop-color="rgb(19.120789%, 44.85321%, 24.647522%)" offset="0.441406"/><stop stop-opacity="1" stop-color="rgb(18.553162%, 44.476318%, 24.41864%)" offset="0.445312"/><stop stop-opacity="1" stop-color="rgb(17.985535%, 44.099426%, 24.188232%)" offset="0.449219"/><stop stop-opacity="1" stop-color="rgb(17.417908%, 43.722534%, 23.957825%)" offset="0.453125"/><stop stop-opacity="1" stop-color="rgb(16.848755%, 43.345642%, 23.727417%)" offset="0.457031"/><stop stop-opacity="1" stop-color="rgb(16.281128%, 42.96875%, 23.498535%)" offset="0.460938"/><stop stop-opacity="1" stop-color="rgb(15.711975%, 42.591858%, 23.268127%)" offset="0.464844"/><stop stop-opacity="1" stop-color="rgb(15.144348%, 42.214966%, 23.039246%)" offset="0.46875"/><stop stop-opacity="1" stop-color="rgb(14.575195%, 41.838074%, 22.808838%)" offset="0.472656"/><stop stop-opacity="1" stop-color="rgb(14.007568%, 41.461182%, 22.57843%)" offset="0.476562"/><stop stop-opacity="1" stop-color="rgb(13.439941%, 41.08429%, 22.348022%)" offset="0.480469"/><stop stop-opacity="1" stop-color="rgb(12.872314%, 40.707397%, 22.119141%)" offset="0.484375"/><stop stop-opacity="1" stop-color="rgb(12.303162%, 40.330505%, 21.888733%)" offset="0.488281"/><stop stop-opacity="1" stop-color="rgb(11.735535%, 39.953613%, 21.658325%)" offset="0.492188"/><stop stop-opacity="1" stop-color="rgb(11.166382%, 39.576721%, 21.427917%)" offset="0.496094"/><stop stop-opacity="1" stop-color="rgb(10.598755%, 39.199829%, 21.199036%)" offset="0.5"/><stop stop-opacity="1" stop-color="rgb(11.408997%, 39.677429%, 21.453857%)" offset="0.503906"/><stop stop-opacity="1" stop-color="rgb(12.219238%, 40.155029%, 21.710205%)" offset="0.507812"/><stop stop-opacity="1" stop-color="rgb(13.02948%, 40.631104%, 21.965027%)" offset="0.511719"/><stop stop-opacity="1" stop-color="rgb(13.839722%, 41.108704%, 22.219849%)" offset="0.515625"/><stop stop-opacity="1" stop-color="rgb(14.649963%, 41.586304%, 22.47467%)" offset="0.519531"/><stop stop-opacity="1" stop-color="rgb(15.460205%, 42.063904%, 22.731018%)" offset="0.523438"/><stop stop-opacity="1" stop-color="rgb(16.270447%, 42.541504%, 22.98584%)" offset="0.527344"/><stop stop-opacity="1" stop-color="rgb(17.080688%, 43.019104%, 23.242188%)" offset="0.53125"/><stop stop-opacity="1" stop-color="rgb(17.89093%, 43.496704%, 23.497009%)" offset="0.535156"/><stop stop-opacity="1" stop-color="rgb(18.701172%, 43.974304%, 23.753357%)" offset="0.539062"/><stop stop-opacity="1" stop-color="rgb(19.511414%, 44.451904%, 24.008179%)" offset="0.542969"/><stop stop-opacity="1" stop-color="rgb(20.321655%, 44.929504%, 24.263%)" offset="0.546875"/><stop stop-opacity="1" stop-color="rgb(21.131897%, 45.407104%, 24.517822%)" offset="0.550781"/><stop stop-opacity="1" stop-color="rgb(21.942139%, 45.884705%, 24.77417%)" offset="0.554687"/><stop stop-opacity="1" stop-color="rgb(22.75238%, 46.362305%, 25.028992%)" offset="0.558594"/><stop stop-opacity="1" stop-color="rgb(23.562622%, 46.839905%, 25.285339%)" offset="0.5625"/><stop stop-opacity="1" stop-color="rgb(24.372864%, 47.317505%, 25.540161%)" offset="0.566406"/><stop stop-opacity="1" stop-color="rgb(25.183105%, 47.795105%, 25.794983%)" offset="0.570312"/><stop stop-opacity="1" stop-color="rgb(25.993347%, 48.272705%, 26.049805%)" offset="0.574219"/><stop stop-opacity="1" stop-color="rgb(26.803589%, 48.750305%, 26.306152%)" offset="0.578125"/><stop stop-opacity="1" stop-color="rgb(27.613831%, 49.226379%, 26.560974%)" offset="0.582031"/><stop stop-opacity="1" stop-color="rgb(28.424072%, 49.703979%, 26.817322%)" offset="0.585938"/><stop stop-opacity="1" stop-color="rgb(29.234314%, 50.18158%, 27.072144%)" offset="0.589844"/><stop stop-opacity="1" stop-color="rgb(30.044556%, 50.65918%, 27.326965%)" offset="0.59375"/><stop stop-opacity="1" stop-color="rgb(30.854797%, 51.13678%, 27.581787%)" offset="0.597656"/><stop stop-opacity="1" stop-color="rgb(31.665039%, 51.61438%, 27.838135%)" offset="0.601562"/><stop stop-opacity="1" stop-color="rgb(32.475281%, 52.09198%, 28.092957%)" offset="0.605469"/><stop stop-opacity="1" stop-color="rgb(33.285522%, 52.56958%, 28.349304%)" offset="0.609375"/><stop stop-opacity="1" stop-color="rgb(34.095764%, 53.04718%, 28.604126%)" offset="0.613281"/><stop stop-opacity="1" stop-color="rgb(34.906006%, 53.52478%, 28.858948%)" offset="0.617187"/><stop stop-opacity="1" stop-color="rgb(35.716248%, 54.00238%, 29.11377%)" offset="0.621094"/><stop stop-opacity="1" stop-color="rgb(36.526489%, 54.47998%, 29.370117%)" offset="0.625"/><stop stop-opacity="1" stop-color="rgb(37.336731%, 54.957581%, 29.624939%)" offset="0.628906"/><stop stop-opacity="1" stop-color="rgb(38.146973%, 55.435181%, 29.881287%)" offset="0.632812"/><stop stop-opacity="1" stop-color="rgb(38.957214%, 55.912781%, 30.136108%)" offset="0.636719"/><stop stop-opacity="1" stop-color="rgb(39.767456%, 56.390381%, 30.39093%)" offset="0.640625"/><stop stop-opacity="1" stop-color="rgb(40.577698%, 56.867981%, 30.645752%)" offset="0.644531"/><stop stop-opacity="1" stop-color="rgb(41.387939%, 57.345581%, 30.9021%)" offset="0.648438"/><stop stop-opacity="1" stop-color="rgb(42.198181%, 57.823181%, 31.156921%)" offset="0.652344"/><stop stop-opacity="1" stop-color="rgb(43.008423%, 58.300781%, 31.413269%)" offset="0.65625"/><stop stop-opacity="1" stop-color="rgb(43.818665%, 58.776855%, 31.668091%)" offset="0.660156"/><stop stop-opacity="1" stop-color="rgb(44.628906%, 59.254456%, 31.922913%)" offset="0.664062"/><stop stop-opacity="1" stop-color="rgb(45.439148%, 59.732056%, 32.177734%)" offset="0.667969"/><stop stop-opacity="1" stop-color="rgb(46.24939%, 60.209656%, 32.434082%)" offset="0.671875"/><stop stop-opacity="1" stop-color="rgb(47.059631%, 60.687256%, 32.688904%)" offset="0.675781"/><stop stop-opacity="1" stop-color="rgb(47.869873%, 61.164856%, 32.945251%)" offset="0.679687"/><stop stop-opacity="1" stop-color="rgb(48.680115%, 61.642456%, 33.200073%)" offset="0.683594"/><stop stop-opacity="1" stop-color="rgb(49.490356%, 62.120056%, 33.454895%)" offset="0.6875"/><stop stop-opacity="1" stop-color="rgb(50.300598%, 62.597656%, 33.709717%)" offset="0.691406"/><stop stop-opacity="1" stop-color="rgb(51.11084%, 63.075256%, 33.966064%)" offset="0.695312"/><stop stop-opacity="1" stop-color="rgb(51.921082%, 63.552856%, 34.220886%)" offset="0.699219"/><stop stop-opacity="1" stop-color="rgb(52.731323%, 64.030457%, 34.477234%)" offset="0.703125"/><stop stop-opacity="1" stop-color="rgb(53.541565%, 64.508057%, 34.732056%)" offset="0.707031"/><stop stop-opacity="1" stop-color="rgb(54.351807%, 64.985657%, 34.988403%)" offset="0.710937"/><stop stop-opacity="1" stop-color="rgb(55.162048%, 65.463257%, 35.243225%)" offset="0.714844"/><stop stop-opacity="1" stop-color="rgb(55.97229%, 65.940857%, 35.498047%)" offset="0.71875"/><stop stop-opacity="1" stop-color="rgb(56.782532%, 66.418457%, 35.752869%)" offset="0.722656"/><stop stop-opacity="1" stop-color="rgb(57.592773%, 66.896057%, 36.009216%)" offset="0.726562"/><stop stop-opacity="1" stop-color="rgb(58.403015%, 67.373657%, 36.264038%)" offset="0.730469"/><stop stop-opacity="1" stop-color="rgb(59.213257%, 67.851257%, 36.520386%)" offset="0.734375"/><stop stop-opacity="1" stop-color="rgb(60.023499%, 68.327332%, 36.775208%)" offset="0.738281"/><stop stop-opacity="1" stop-color="rgb(60.83374%, 68.804932%, 37.030029%)" offset="0.742188"/><stop stop-opacity="1" stop-color="rgb(61.643982%, 69.282532%, 37.284851%)" offset="0.746094"/><stop stop-opacity="1" stop-color="rgb(62.454224%, 69.760132%, 37.541199%)" offset="0.75"/><stop stop-opacity="1" stop-color="rgb(63.264465%, 70.237732%, 37.796021%)" offset="0.753906"/><stop stop-opacity="1" stop-color="rgb(64.074707%, 70.715332%, 38.052368%)" offset="0.757812"/><stop stop-opacity="1" stop-color="rgb(64.884949%, 71.192932%, 38.30719%)" offset="0.761719"/><stop stop-opacity="1" stop-color="rgb(65.69519%, 71.670532%, 38.562012%)" offset="0.765625"/><stop stop-opacity="1" stop-color="rgb(66.505432%, 72.148132%, 38.816833%)" offset="0.769531"/><stop stop-opacity="1" stop-color="rgb(67.315674%, 72.625732%, 39.073181%)" offset="0.773438"/><stop stop-opacity="1" stop-color="rgb(68.125916%, 73.103333%, 39.328003%)" offset="0.777344"/><stop stop-opacity="1" stop-color="rgb(68.936157%, 73.580933%, 39.584351%)" offset="0.78125"/><stop stop-opacity="1" stop-color="rgb(69.746399%, 74.058533%, 39.839172%)" offset="0.785156"/><stop stop-opacity="1" stop-color="rgb(70.556641%, 74.536133%, 40.093994%)" offset="0.789062"/><stop stop-opacity="1" stop-color="rgb(71.366882%, 75.013733%, 40.348816%)" offset="0.792969"/><stop stop-opacity="1" stop-color="rgb(72.177124%, 75.491333%, 40.605164%)" offset="0.796875"/><stop stop-opacity="1" stop-color="rgb(72.987366%, 75.968933%, 40.859985%)" offset="0.800781"/><stop stop-opacity="1" stop-color="rgb(73.797607%, 76.446533%, 41.116333%)" offset="0.804687"/><stop stop-opacity="1" stop-color="rgb(74.607849%, 76.922607%, 41.371155%)" offset="0.808594"/><stop stop-opacity="1" stop-color="rgb(75.418091%, 77.400208%, 41.625977%)" offset="0.8125"/><stop stop-opacity="1" stop-color="rgb(76.228333%, 77.877808%, 41.880798%)" offset="0.816406"/><stop stop-opacity="1" stop-color="rgb(77.038574%, 78.355408%, 42.137146%)" offset="0.820312"/><stop stop-opacity="1" stop-color="rgb(77.848816%, 78.833008%, 42.391968%)" offset="0.824219"/><stop stop-opacity="1" stop-color="rgb(78.659058%, 79.310608%, 42.648315%)" offset="0.828125"/><stop stop-opacity="1" stop-color="rgb(79.469299%, 79.788208%, 42.903137%)" offset="0.832031"/><stop stop-opacity="1" stop-color="rgb(80.279541%, 80.265808%, 43.157959%)" offset="0.835937"/><stop stop-opacity="1" stop-color="rgb(81.089783%, 80.743408%, 43.412781%)" offset="0.839844"/><stop stop-opacity="1" stop-color="rgb(81.900024%, 81.221008%, 43.669128%)" offset="0.84375"/><stop stop-opacity="1" stop-color="rgb(82.710266%, 81.698608%, 43.92395%)" offset="0.847656"/><stop stop-opacity="1" stop-color="rgb(83.520508%, 82.176208%, 44.180298%)" offset="0.851562"/><stop stop-opacity="1" stop-color="rgb(83.709717%, 82.287598%, 44.239807%)" offset="0.859375"/><stop stop-opacity="1" stop-color="rgb(83.898926%, 82.398987%, 44.299316%)" offset="0.875"/><stop stop-opacity="1" stop-color="rgb(83.898926%, 82.398987%, 44.299316%)" offset="1"/></linearGradient><clipPath id="adb8974a4a"><path d="M 170 284 L 211 284 L 211 324 L 170 324 Z M 170 284 " clip-rule="nonzero"/></clipPath><clipPath id="5fbe7fe019"><path d="M 27.820312 174.976562 L 184.800781 18 L 347.082031 180.28125 L 190.101562 337.257812 Z M 27.820312 174.976562 " clip-rule="nonzero"/></clipPath><clipPath id="836052d428"><path d="M 27.820312 174.976562 L 184.800781 18 L 347.082031 180.28125 L 190.101562 337.257812 Z M 27.820312 174.976562 " clip-rule="nonzero"/></clipPath><clipPath id="04e5b440e9"><path d="M 149 71 L 165 71 L 165 88 L 149 88 Z M 149 71 " clip-rule="nonzero"/></clipPath><clipPath id="bbb07d9ef1"><path d="M 27.820312 174.976562 L 184.800781 18 L 347.082031 180.28125 L 190.101562 337.257812 Z M 27.820312 174.976562 " clip-rule="nonzero"/></clipPath><clipPath id="7758d6d14c"><path d="M 27.820312 174.976562 L 184.800781 18 L 347.082031 180.28125 L 190.101562 337.257812 Z M 27.820312 174.976562 " clip-rule="nonzero"/></clipPath><clipPath id="fdb3e00a9c"><path d="M 204 71 L 221 71 L 221 88 L 204 88 Z M 204 71 " clip-rule="nonzero"/></clipPath><clipPath id="29e11ceaf0"><path d="M 27.820312 174.976562 L 184.800781 18 L 347.082031 180.28125 L 190.101562 337.257812 Z M 27.820312 174.976562 " clip-rule="nonzero"/></clipPath><clipPath id="968c97659e"><path d="M 27.820312 174.976562 L 184.800781 18 L 347.082031 180.28125 L 190.101562 337.257812 Z M 27.820312 174.976562 " clip-rule="nonzero"/></clipPath><clipPath id="6ebbef7a9b"><path d="M 182 296 L 198 296 L 198 312 L 182 312 Z M 182 296 " clip-rule="nonzero"/></clipPath><clipPath id="f8cea3e236"><path d="M 27.820312 174.976562 L 184.800781 18 L 347.082031 180.28125 L 190.101562 337.257812 Z M 27.820312 174.976562 " clip-rule="nonzero"/></clipPath><clipPath id="5bbce32d63"><path d="M 27.820312 174.976562 L 184.800781 18 L 347.082031 180.28125 L 190.101562 337.257812 Z M 27.820312 174.976562 " clip-rule="nonzero"/></clipPath><clipPath id="7a6805d803"><path d="M 179 292 L 203 292 L 203 316 L 179 316 Z M 179 292 " clip-rule="nonzero"/></clipPath><clipPath id="7636ac2b5a"><path d="M 27.820312 174.976562 L 184.800781 18 L 347.082031 180.28125 L 190.101562 337.257812 Z M 27.820312 174.976562 " clip-rule="nonzero"/></clipPath><clipPath id="c4a07cd08e"><path d="M 27.820312 174.976562 L 184.800781 18 L 347.082031 180.28125 L 190.101562 337.257812 Z M 27.820312 174.976562 " clip-rule="nonzero"/></clipPath><clipPath id="76f95722e5"><path d="M 133 67 L 237 67 L 237 328 L 133 328 Z M 133 67 " clip-rule="nonzero"/></clipPath><clipPath id="ef0059e9b4"><path d="M 27.820312 174.976562 L 184.800781 18 L 347.082031 180.28125 L 190.101562 337.257812 Z M 27.820312 174.976562 " clip-rule="nonzero"/></clipPath><clipPath id="dfc60674e3"><path d="M 27.820312 174.976562 L 184.800781 18 L 347.082031 180.28125 L 190.101562 337.257812 Z M 27.820312 174.976562 " clip-rule="nonzero"/></clipPath></defs><g clip-path="url(#d1e8900ca8)"><g clip-path="url(#e7d36f453f)"><path fill="url(#862f690b50)" d="M 27.824219 27.824219 L 27.824219 347.222656 L 347.222656 347.222656 L 347.222656 27.824219 Z M 27.824219 27.824219 " fill-rule="nonzero"/></g></g><g clip-path="url(#adb8974a4a)"><g clip-path="url(#5fbe7fe019)"><g clip-path="url(#836052d428)"><path fill="#1b6436" d="M 176.300781 289.941406 C 184.015625 282.226562 196.539062 282.226562 204.253906 289.941406 C 211.972656 297.65625 211.972656 310.183594 204.253906 317.898438 C 196.539062 325.613281 184.015625 325.613281 176.300781 317.898438 C 168.585938 310.183594 168.585938 297.65625 176.300781 289.941406 " fill-opacity="1" fill-rule="evenodd"/></g></g></g><g clip-path="url(#04e5b440e9)"><g clip-path="url(#bbb07d9ef1)"><g clip-path="url(#7758d6d14c)"><path fill="#1b6436" d="M 165 79.796875 C 165 75.429688 161.460938 71.890625 157.09375 71.890625 L 149.191406 71.890625 L 149.1875 87.707031 C 149.1875 87.707031 153.140625 87.707031 157.09375 87.703125 C 161.460938 87.703125 165 84.164062 165 79.796875 " fill-opacity="1" fill-rule="evenodd"/></g></g></g><g clip-path="url(#fdb3e00a9c)"><g clip-path="url(#29e11ceaf0)"><g clip-path="url(#968c97659e)"><path fill="#1b6436" d="M 204.535156 79.792969 C 204.539062 75.429688 208.074219 71.890625 212.433594 71.890625 L 220.351562 71.890625 L 220.347656 87.707031 C 220.347656 87.707031 216.390625 87.707031 212.433594 87.703125 C 208.070312 87.707031 204.535156 84.167969 204.539062 79.804688 C 204.539062 79.800781 204.535156 79.796875 204.535156 79.792969 " fill-opacity="1" fill-rule="evenodd"/></g></g></g><g clip-path="url(#6ebbef7a9b)"><g clip-path="url(#f8cea3e236)"><g clip-path="url(#5bbce32d63)"><path fill="#d6d271" d="M 184.988281 298.628906 C 187.90625 295.710938 192.644531 295.714844 195.566406 298.632812 C 198.484375 301.550781 198.484375 306.289062 195.566406 309.207031 C 192.644531 312.125 187.90625 312.128906 184.988281 309.207031 C 182.070312 306.289062 182.070312 301.550781 184.988281 298.628906 " fill-opacity="1" fill-rule="evenodd"/></g></g></g><g clip-path="url(#7a6805d803)"><g clip-path="url(#7636ac2b5a)"><g clip-path="url(#c4a07cd08e)"><path fill="#9ebb6b" d="M 193.074219 301.125 C 194.445312 302.496094 194.449219 304.734375 193.074219 306.113281 C 191.699219 307.484375 189.460938 307.480469 188.089844 306.109375 C 186.714844 304.734375 186.714844 302.496094 188.085938 301.125 C 189.460938 299.75 191.699219 299.75 193.074219 301.125 M 182.5 311.699219 C 186.957031 316.160156 194.207031 316.160156 198.664062 311.703125 C 203.125 307.242188 203.125 299.992188 198.664062 295.535156 C 194.207031 291.074219 186.953125 291.074219 182.496094 295.535156 C 178.039062 299.988281 178.039062 307.242188 182.5 311.699219 " fill-opacity="1" fill-rule="nonzero"/></g></g></g><g clip-path="url(#76f95722e5)"><g clip-path="url(#ef0059e9b4)"><g clip-path="url(#dfc60674e3)"><path fill="#9ebb6b" d="M 201.460938 292.738281 C 207.628906 298.90625 207.628906 308.933594 201.460938 315.101562 C 195.292969 321.269531 185.261719 321.269531 179.097656 315.101562 C 172.929688 308.933594 172.929688 298.90625 179.097656 292.738281 C 179.363281 292.472656 179.671875 292.277344 179.953125 292.035156 L 181.128906 294.460938 L 188.246094 291.011719 L 187.011719 288.472656 C 192.066406 287.414062 197.542969 288.820312 201.460938 292.738281 M 157.09375 75.847656 C 159.273438 75.847656 161.046875 77.621094 161.046875 79.796875 C 161.042969 81.984375 159.265625 83.746094 157.09375 83.753906 L 153.140625 83.753906 L 153.140625 75.84375 Z M 212.429688 83.75 C 211.378906 83.75 210.390625 83.34375 209.644531 82.597656 C 208.898438 81.851562 208.492188 80.863281 208.492188 79.804688 L 204.535156 79.792969 L 208.488281 79.796875 C 208.488281 77.621094 210.261719 75.84375 212.433594 75.84375 L 216.398438 75.847656 L 216.394531 79.796875 L 216.398438 79.804688 L 216.394531 83.75 Z M 228.257812 71.890625 L 228.257812 75.84375 L 224.300781 75.847656 L 224.304688 71.890625 C 224.300781 70.84375 223.890625 69.835938 223.148438 69.097656 C 222.40625 68.355469 221.398438 67.9375 220.351562 67.9375 L 212.433594 67.9375 C 205.902344 67.941406 200.589844 73.261719 200.578125 79.789062 L 200.582031 79.804688 C 200.582031 82.972656 201.816406 85.949219 204.050781 88.1875 C 206.292969 90.429688 209.269531 91.660156 212.433594 91.660156 L 220.347656 91.660156 C 221.441406 91.660156 222.429688 91.21875 223.144531 90.5 C 223.859375 89.785156 224.300781 88.796875 224.300781 87.707031 L 224.300781 83.753906 L 228.253906 83.753906 L 228.257812 119.332031 C 228.253906 130.953125 223.730469 141.871094 215.519531 150.085938 C 207.304688 158.296875 196.386719 162.820312 184.769531 162.820312 C 173.148438 162.820312 162.230469 158.296875 154.015625 150.085938 C 145.804688 141.871094 141.28125 130.953125 141.28125 119.335938 L 141.277344 83.75 L 145.234375 83.753906 L 145.234375 87.707031 C 145.230469 88.753906 145.652344 89.761719 146.390625 90.5 C 147.132812 91.242188 148.136719 91.660156 149.1875 91.660156 L 157.09375 91.65625 C 160.363281 91.660156 163.328125 90.328125 165.476562 88.179688 C 167.625 86.03125 168.953125 83.066406 168.957031 79.800781 L 168.953125 79.796875 C 168.953125 73.261719 163.632812 67.9375 157.09375 67.9375 L 149.191406 67.9375 C 147.003906 67.9375 145.234375 69.707031 145.238281 71.890625 L 145.234375 75.847656 L 141.277344 75.84375 L 141.277344 71.890625 C 141.277344 69.707031 139.507812 67.9375 137.324219 67.9375 C 135.140625 67.9375 133.371094 69.707031 133.371094 71.890625 L 133.375 119.335938 C 133.375 133.066406 138.71875 145.96875 148.425781 155.675781 C 156.601562 163.851562 167.0625 168.886719 178.359375 170.285156 C 179.117188 176.070312 181.714844 181.421875 185.910156 185.617188 C 190.941406 190.648438 197.632812 193.421875 204.75 193.421875 L 218.074219 193.421875 C 223.597656 193.421875 228.09375 197.917969 228.09375 203.453125 C 228.09375 208.976562 223.597656 213.472656 218.074219 213.472656 L 184.398438 213.472656 C 175.164062 213.46875 166.730469 218.148438 161.820312 225.96875 C 156.917969 233.792969 156.394531 243.425781 160.417969 251.742188 L 176.402344 284.710938 C 175.390625 285.445312 174.414062 286.238281 173.503906 287.148438 C 164.253906 296.398438 164.253906 311.441406 173.503906 320.691406 C 182.753906 329.941406 197.800781 329.941406 207.050781 320.691406 C 216.300781 311.441406 216.300781 296.398438 207.050781 287.148438 C 200.683594 280.777344 191.566406 278.796875 183.492188 281.199219 L 167.535156 248.292969 C 164.703125 242.445312 165.070312 235.667969 168.519531 230.167969 C 171.96875 224.660156 177.902344 221.375 184.398438 221.375 L 218.074219 221.375 C 227.953125 221.382812 235.996094 213.339844 236 203.441406 C 236 193.554688 227.957031 185.515625 218.074219 185.515625 L 204.75 185.515625 C 199.746094 185.515625 195.039062 183.5625 191.5 180.023438 C 188.890625 177.417969 187.164062 174.175781 186.425781 170.644531 C 199.527344 170.234375 211.796875 164.988281 221.109375 155.675781 C 230.816406 145.96875 236.160156 133.0625 236.164062 119.332031 L 236.160156 79.800781 L 236.164062 79.796875 L 236.164062 71.890625 C 236.164062 69.707031 234.398438 67.9375 232.210938 67.9375 C 230.023438 67.9375 228.257812 69.707031 228.257812 71.890625 " fill-opacity="1" fill-rule="nonzero"/></g></g></g></svg>